  0
SECTION
  2
HEADER
  9
$ACADVER
  1
AC1009
  9
$DWGCODEPAGE
  3
ansi_1252
  9
$INSBASE
 10
0.0
 20
0.0
 30
0.0
  9
$EXTMIN
 10
1098.413108
 20
27598.875112
 30
0.0
  9
$EXTMAX
 10
-7495.20189
 20
-2999.999239
 30
0.0
  9
$LIMMIN
 10
-105000.0
 20
-74250.0
  9
$LIMMAX
 10
105000.0
 20
74250.0
  9
$ORTHOMODE
 70
     1
  9
$REGENMODE
 70
     1
  9
$FILLMODE
 70
     1
  9
$QTEXTMODE
 70
     0
  9
$MIRRTEXT
 70
     1
  9
$DRAGMODE
 70
     2
  9
$LTSCALE
 40
1.0
  9
$OSMODE
 70
    37
  9
$ATTMODE
 70
     1
  9
$TEXTSIZE
 40
0.2
  9
$TRACEWID
 40
0.05
  9
$TEXTSTYLE
  7
STANDARD
  9
$CLAYER
  8
0
  9
$CELTYPE
  6
BYLAYER
  9
$CECOLOR
 62
    18
  9
$DIMSCALE
 40
1.0
  9
$DIMASZ
 40
0.18
  9
$DIMEXO
 40
0.0625
  9
$DIMDLI
 40
0.38
  9
$DIMRND
 40
0.0
  9
$DIMDLE
 40
0.0
  9
$DIMEXE
 40
0.18
  9
$DIMTP
 40
0.0
  9
$DIMTM
 40
0.0
  9
$DIMTXT
 40
0.18
  9
$DIMCEN
 40
0.09
  9
$DIMTSZ
 40
0.0
  9
$DIMTOL
 70
     0
  9
$DIMLIM
 70
     0
  9
$DIMTIH
 70
     1
  9
$DIMTOH
 70
     1
  9
$DIMSE1
 70
     0
  9
$DIMSE2
 70
     0
  9
$DIMTAD
 70
     0
  9
$DIMZIN
 70
     0
  9
$DIMBLK
  1

  9
$DIMASO
 70
     1
  9
$DIMSHO
 70
     1
  9
$DIMPOST
  1

  9
$DIMAPOST
  1

  9
$DIMALT
 70
     0
  9
$DIMALTD
 70
     2
  9
$DIMALTF
 40
25.4
  9
$DIMLFAC
 40
1.0
  9
$DIMTOFL
 70
     0
  9
$DIMTVP
 40
0.0
  9
$DIMTIX
 70
     0
  9
$DIMSOXD
 70
     0
  9
$DIMSAH
 70
     0
  9
$DIMBLK1
  1

  9
$DIMBLK2
  1

  9
$DIMSTYLE
  2
STANDARD
  9
$DIMCLRD
 70
    18
  9
$DIMCLRE
 70
    18
  9
$DIMCLRT
 70
    18
  9
$DIMTFAC
 40
1.0
  9
$DIMGAP
 40
0.09
  9
$LUNITS
 70
     2
  9
$LUPREC
 70
     4
  9
$SKETCHINC
 40
0.1
  9
$FILLETRAD
 40
0.5
  9
$AUNITS
 70
     0
  9
$AUPREC
 70
     0
  9
$MENU
  1
.
  9
$ELEVATION
 40
0.0
  9
$PELEVATION
 40
0.0
  9
$THICKNESS
 40
0.0
  9
$LIMCHECK
 70
     0
  9
$CHAMFERA
 40
0.5
  9
$CHAMFERB
 40
0.5
  9
$SKPOLY
 70
     0
  9
$TDCREATE
 40
2458654.592935995
  9
$TDUPDATE
 40
2458680.854028773
  9
$TDINDWG
 40
0.0000000116
  9
$TDUSRTIMER
 40
0.0000000116
  9
$USRTIMER
 70
     1
  9
$ANGBASE
 50
0.0
  9
$ANGDIR
 70
     0
  9
$PDMODE
 70
     0
  9
$PDSIZE
 40
0.0
  9
$PLINEWID
 40
0.0
  9
$COORDS
 70
     1
  9
$SPLFRAME
 70
     0
  9
$SPLINETYPE
 70
     6
  9
$SPLINESEGS
 70
     8
  9
$ATTDIA
 70
     0
  9
$ATTREQ
 70
     1
  9
$HANDLING
 70
     1
  9
$HANDSEED
  5
707142B
  9
$SURFTAB1
 70
     6
  9
$SURFTAB2
 70
     6
  9
$SURFTYPE
 70
     6
  9
$SURFU
 70
     6
  9
$SURFV
 70
     6
  9
$UCSNAME
  2

  9
$UCSORG
 10
0.0
 20
0.0
 30
0.0
  9
$UCSXDIR
 10
1.0
 20
0.0
 30
0.0
  9
$UCSYDIR
 10
0.0
 20
1.0
 30
0.0
  9
$PUCSNAME
  2

  9
$PUCSORG
 10
0.0
 20
0.0
 30
0.0
  9
$PUCSXDIR
 10
1.0
 20
0.0
 30
0.0
  9
$PUCSYDIR
 10
0.0
 20
1.0
 30
0.0
  9
$USERI1
 70
     0
  9
$USERI2
 70
     0
  9
$USERI3
 70
     0
  9
$USERI4
 70
     0
  9
$USERI5
 70
     0
  9
$USERR1
 40
0.0
  9
$USERR2
 40
0.0
  9
$USERR3
 40
0.0
  9
$USERR4
 40
0.0
  9
$USERR5
 40
0.0
  9
$WORLDVIEW
 70
     1
  9
$SHADEDGE
 70
     3
  9
$SHADEDIF
 70
    70
  9
$TILEMODE
 70
     1
  9
$MAXACTVP
 70
    64
  9
$PLIMCHECK
 70
     0
  9
$PEXTMIN
 10
1.000000E+20
 20
1.000000E+20
 30
1.000000E+20
  9
$PEXTMAX
 10
-1.000000E+20
 20
-1.000000E+20
 30
-1.000000E+20
  9
$PLIMMIN
 10
-0.25
 20
-0.25
  9
$PLIMMAX
 10
10.75
 20
8.25
  9
$UNITMODE
 70
     0
  9
$VISRETAIN
 70
     1
  9
$PLINEGEN
 70
     0
  9
$PSLTSCALE
 70
     0
  0
ENDSEC
  0
SECTION
  2
TABLES
  0
TABLE
  2
VPORT
 70
     1
  0
VPORT
  2
*ACTIVE
 70
     0
 10
0.0
 20
0.0
 11
1.0
 21
1.0
 12
-606.203892
 22
13427.586641
 13
0.0
 23
0.0
 14
0.5
 24
0.5
 15
0.5
 25
0.5
 16
0.0
 26
0.0
 36
1.0
 17
0.0
 27
0.0
 37
0.0
 40
18482.974469
 41
2.253219
 42
50.0
 43
0.0
 44
0.0
 50
0.0
 51
0.0
 71
    16
 72
   100
 73
     1
 74
     3
 75
     0
 76
     0
 77
     0
 78
     0
  0
ENDTAB
  0
TABLE
  2
LTYPE
 70
    48
  0
LTYPE
  2
CONTINUOUS
 70
     0
  3
Solid line
 72
    65
 73
     0
 40
0.0
  0
LTYPE
  2
ZIGZAG
 70
     0
  3
Zig zag /\/\/\/\/\/\/\/\/\/\/\/\/\/\/\/\/\/\/\/\/\/\/\/
 72
    65
 73
     4
 40
20.32254
 49
0.00254
 49
-5.08
 49
-10.16
 49
-5.08
  0
LTYPE
  2
PHANTOMX2
 70
     0
  3
Phantom (2x) ____________    ____    ____   _
 72
    65
 73
     6
 40
127.0
 49
63.5
 49
-12.7
 49
12.7
 49
-12.7
 49
12.7
 49
-12.7
  0
LTYPE
  2
TRACKS
 70
     0
  3
Tracks -|-|-|-|-|-|-|-|-|-|-|-|-|-|-|-|-|-|-|-|-|-|-|-|-
 72
    65
 73
     2
 40
7.62
 49
3.81
 49
3.81
  0
LTYPE
  2
PHANTOM
 70
     0
  3
Phantom ______  __  __  ______  __  __  ______ 
 72
    65
 73
     6
 40
63.5
 49
31.75
 49
-6.35
 49
6.35
 49
-6.35
 49
6.35
 49
-6.35
  0
LTYPE
  2
PHANTOM2
 70
     0
  3
Phantom (.5x) ___ _ _ ___ _ _ ___ _ _ ___ _ _
 72
    65
 73
     6
 40
31.75
 49
15.875
 49
-3.175
 49
3.175
 49
-3.175
 49
3.175
 49
-3.175
  0
LTYPE
  2
HIDDENX2
 70
     0
  3
Hidden (2x) ____ ____ ____ ____ ____ ____ ____ 
 72
    65
 73
     2
 40
19.05
 49
12.7
 49
-6.35
  0
LTYPE
  2
HOT_WATER_SUPPLY
 70
     0
  3
Hot water supply ---- HW ---- HW ---- HW ----
 72
    65
 73
     3
 40
22.86
 49
12.7
 49
-5.08
 49
-5.08
  0
LTYPE
  2
HIDDEN
 70
     0
  3
Hidden __ __ __ __ __ __ __ __ __ __ __ __ __ __
 72
    65
 73
     2
 40
9.525
 49
6.35
 49
-3.175
  0
LTYPE
  2
HIDDEN2
 70
     0
  3
Hidden (.5x) _ _ _ _ _ _ _ _ _ _ _ _ _ _ _ _ _ 
 72
    65
 73
     2
 40
4.7625
 49
3.175
 49
-1.5875
  0
LTYPE
  2
FENCELINE2
 70
     0
  3
Fenceline square ----[]-----[]----[]-----[]----[]---
 72
    65
 73
     4
 40
36.83
 49
6.35
 49
-2.54
 49
-2.54
 49
25.4
  0
LTYPE
  2
GAS_LINE
 70
     0
  3
Gas line ----GAS----GAS----GAS----GAS----GAS----GAS--
 72
    65
 73
     3
 40
24.13
 49
12.7
 49
-5.08
 49
-6.35
  0
LTYPE
  2
DRAINAGE2
 70
     0
  3
Drainage reversed----<----<----<----
 72
    65
 73
     2
 40
10.16
 49
5.08
 49
5.08
  0
LTYPE
  2
FENCELINE1
 70
     0
  3
Fenceline circle ----0-----0----0-----0----0-----0--
 72
    65
 73
     4
 40
36.83
 49
6.35
 49
-2.54
 49
-2.54
 49
25.4
  0
LTYPE
  2
DOTX2
 70
     0
  3
Dot (2x) .  .  .  .  .  .  .  .  .  .  .  .  .  .
 72
    65
 73
     2
 40
12.7
 49
0.0
 49
-12.7
  0
LTYPE
  2
DRAINAGE
 70
     0
  3
Drainage ---->---->---->----
 72
    65
 73
     2
 40
10.16
 49
5.08
 49
5.08
  0
LTYPE
  2
DOT
 70
     0
  3
Dot . . . . . . . . . . . . . . . . . . . . . . . .
 72
    65
 73
     2
 40
6.35
 49
0.0
 49
-6.35
  0
LTYPE
  2
DOT2
 70
     0
  3
Dot (.5x) ........................................
 72
    65
 73
     2
 40
3.175
 49
0.0
 49
-3.175
  0
LTYPE
  2
DIVIDE2
 70
     0
  3
Divide (.5x) __..__..__..__..__..__..__..__.._
 72
    65
 73
     6
 40
15.875
 49
6.35
 49
-3.175
 49
0.0
 49
-3.175
 49
0.0
 49
-3.175
  0
LTYPE
  2
DIVIDEX2
 70
     0
  3
Divide (2x) ________  .  .  ________  .  .  _
 72
    65
 73
     6
 40
63.5
 49
25.4
 49
-12.7
 49
0.0
 49
-12.7
 49
0.0
 49
-12.7
  0
LTYPE
  2
DASHEDX2
 70
     0
  3
Dashed (2x) ____  ____  ____  ____  ____  ___
 72
    65
 73
     2
 40
38.1
 49
25.4
 49
-12.7
  0
LTYPE
  2
DIVIDE
 70
     0
  3
Divide ____ . . ____ . . ____ . . ____ . . ____
 72
    65
 73
     6
 40
31.75
 49
12.7
 49
-6.35
 49
0.0
 49
-6.35
 49
0.0
 49
-6.35
  0
LTYPE
  2
DASHED
 70
     0
  3
Dashed __ __ __ __ __ __ __ __ __ __ __ __ __ _
 72
    65
 73
     2
 40
19.05
 49
12.7
 49
-6.35
  0
LTYPE
  2
DASHED2
 70
     0
  3
Dashed (.5x) _ _ _ _ _ _ _ _ _ _ _ _ _ _ _ _ _ 
 72
    65
 73
     2
 40
9.525
 49
6.35
 49
-3.175
  0
LTYPE
  2
DASHDOT2
 70
     0
  3
Dash dot (.5x) _._._._._._._._._._._._._._._.
 72
    65
 73
     4
 40
12.7
 49
6.35
 49
-3.175
 49
0.0
 49
-3.175
  0
LTYPE
  2
DASHDOTX2
 70
     0
  3
Dash dot (2x) ____  .  ____  .  ____  .  ___
 72
    65
 73
     4
 40
50.8
 49
25.4
 49
-12.7
 49
0.0
 49
-12.7
  0
LTYPE
  2
CENTERX2
 70
     0
  3
Center (2x) ________  __  ________  __  _____
 72
    65
 73
     4
 40
101.6
 49
63.5
 49
-12.7
 49
12.7
 49
-12.7
  0
LTYPE
  2
DASHDOT
 70
     0
  3
Dash dot __ . __ . __ . __ . __ . __ . __ . __
 72
    65
 73
     4
 40
25.4
 49
12.7
 49
-6.35
 49
0.0
 49
-6.35
  0
LTYPE
  2
CENTER
 70
     0
  3
Center ____ _ ____ _ ____ _ ____ _ ____ _ ____
 72
    65
 73
     4
 40
50.8
 49
31.75
 49
-6.35
 49
6.35
 49
-6.35
  0
LTYPE
  2
CENTER2
 70
     0
  3
Center (.5x) ___ _ ___ _ ___ _ ___ _ ___ _ ___
 72
    65
 73
     4
 40
28.575
 49
19.05
 49
-3.175
 49
3.175
 49
-3.175
  0
LTYPE
  2
BORDER2
 70
     0
  3
Border (.5x) __.__.__.__.__.__.__.__.__.__.__.
 72
    65
 73
     6
 40
22.225
 49
6.35
 49
-3.175
 49
6.35
 49
-3.175
 49
0.0
 49
-3.175
  0
LTYPE
  2
BORDERX2
 70
     0
  3
Border (2x) ____  ____  .  ____  ____  .  ___
 72
    65
 73
     6
 40
88.9
 49
25.4
 49
-12.7
 49
25.4
 49
-12.7
 49
0.0
 49
-12.7
  0
LTYPE
  2
BATTING
 70
     0
  3
Batting SSSSSSSSSSSSSSSSSSSSSSSSSSSSSSSSSSSSSSSSSSSSSSS
 72
    65
 73
     4
 40
10.16254
 49
0.00254
 49
-2.54
 49
-5.08
 49
-2.54
  0
LTYPE
  2
BORDER
 70
     0
  3
Border __ __ . __ __ . __ __ . __ __ . __ __ .
 72
    65
 73
     6
 40
44.45
 49
12.7
 49
-6.35
 49
12.7
 49
-6.35
 49
0.0
 49
-6.35
  0
LTYPE
  2
ACAD_ISO14W100
 70
     0
  3
ISO dash triple-dot __ . . . __ . . . __ . . . _
 72
    65
 73
     8
 40
24.0
 49
12.0
 49
-3.0
 49
0.0
 49
-3.0
 49
0.0
 49
-3.0
 49
0.0
 49
-3.0
  0
LTYPE
  2
ACAD_ISO15W100
 70
     0
  3
ISO double-dash triple-dot __ __ . . . __ __ . .
 72
    65
 73
    10
 40
39.0
 49
12.0
 49
-3.0
 49
12.0
 49
-3.0
 49
0.0
 49
-3.0
 49
0.0
 49
-3.0
 49
0.0
 49
-3.0
  0
LTYPE
  2
ACAD_ISO12W100
 70
     0
  3
ISO dash double-dot __ . . __ . . __ . . __ . . 
 72
    65
 73
     6
 40
21.0
 49
12.0
 49
-3.0
 49
0.0
 49
-3.0
 49
0.0
 49
-3.0
  0
LTYPE
  2
ACAD_ISO13W100
 70
     0
  3
ISO double-dash double-dot __ __ . . __ __ . . _
 72
    65
 73
     8
 40
36.0
 49
12.0
 49
-3.0
 49
12.0
 49
-3.0
 49
0.0
 49
-3.0
 49
0.0
 49
-3.0
  0
LTYPE
  2
ACAD_ISO10W100
 70
     0
  3
ISO dash dot __ . __ . __ . __ . __ . __ . __ . 
 72
    65
 73
     4
 40
18.0
 49
12.0
 49
-3.0
 49
0.0
 49
-3.0
  0
LTYPE
  2
ACAD_ISO11W100
 70
     0
  3
ISO double-dash dot __ __ . __ __ . __ __ . __ _
 72
    65
 73
     6
 40
33.0
 49
12.0
 49
-3.0
 49
12.0
 49
-3.0
 49
0.0
 49
-3.0
  0
LTYPE
  2
ACAD_ISO08W100
 70
     0
  3
ISO long-dash short-dash ____ __ ____ __ ____ _
 72
    65
 73
     4
 40
36.0
 49
24.0
 49
-3.0
 49
6.0
 49
-3.0
  0
LTYPE
  2
ACAD_ISO09W100
 70
     0
  3
ISO long-dash double-short-dash ____ __ __ ____
 72
    65
 73
     6
 40
45.0
 49
24.0
 49
-3.0
 49
6.0
 49
-3.0
 49
6.0
 49
-3.0
  0
LTYPE
  2
ACAD_ISO06W100
 70
     0
  3
ISO long-dash triple-dot ____ ... ____ ... ____
 72
    65
 73
     8
 40
36.0
 49
24.0
 49
-3.0
 49
0.0
 49
-3.0
 49
0.0
 49
-3.0
 49
0.0
 49
-3.0
  0
LTYPE
  2
ACAD_ISO07W100
 70
     0
  3
ISO dot . . . . . . . . . . . . . . . . . . . . 
 72
    65
 73
     2
 40
3.0
 49
0.0
 49
-3.0
  0
LTYPE
  2
ACAD_ISO04W100
 70
     0
  3
ISO long-dash dot ____ . ____ . ____ . ____ . _
 72
    65
 73
     4
 40
30.0
 49
24.0
 49
-3.0
 49
0.0
 49
-3.0
  0
LTYPE
  2
ACAD_ISO05W100
 70
     0
  3
ISO long-dash double-dot ____ .. ____ .. ____ . 
 72
    65
 73
     6
 40
33.0
 49
24.0
 49
-3.0
 49
0.0
 49
-3.0
 49
0.0
 49
-3.0
  0
LTYPE
  2
ACAD_ISO02W100
 70
     0
  3
ISO dash __ __ __ __ __ __ __ __ __ __ __ __ __
 72
    65
 73
     2
 40
15.0
 49
12.0
 49
-3.0
  0
LTYPE
  2
ACAD_ISO03W100
 70
     0
  3
ISO dash space __    __    __    __    __    __
 72
    65
 73
     2
 40
30.0
 49
12.0
 49
-18.0
  0
ENDTAB
  0
TABLE
  2
LAYER
 70
     1
  0
LAYER
  2
0
 70
     0
 62
    13
  6
CONTINUOUS
  0
ENDTAB
  0
TABLE
  2
STYLE
 70
     2
  0
STYLE
  2
STANDARD
 70
     0
 40
0.0
 41
1.0
 50
0.0
 71
     0
 42
0.2
  3
txt
  4

  0
STYLE
  2
QCADDIMTEXTSTYLE
 70
     0
 40
0.0
 41
1.0
 50
0.0
 71
     0
 42
0.2
  3

  4

  0
ENDTAB
  0
TABLE
  2
VIEW
 70
     0
  0
ENDTAB
  0
TABLE
  2
UCS
 70
     0
  0
ENDTAB
  0
TABLE
  2
APPID
 70
     7
  0
APPID
  2
ACAD
 70
     0
  0
APPID
  2
QCAD
 70
     0
  0
APPID
  2
MCS_DIM1
 70
     0
  0
APPID
  2
MCSXDATA5
 70
     0
  0
APPID
  2
MCS_DOCUMENT_ID
 70
     0
  0
APPID
  2
MCS_PARAMS_DATA
 70
     0
  0
APPID
  2
MC_VERSION_DATA
 70
     0
  0
ENDTAB
  0
TABLE
  2
DIMSTYLE
 70
     2
  0
DIMSTYLE
  2
STANDARD
 70
     0
  3

  4

  5

  6

  7

 40
1.0
 41
0.18
 42
0.0625
 43
0.38
 44
0.18
 45
0.0
 46
0.0
 47
0.0
 48
0.0
140
0.18
141
0.09
142
0.0
143
25.4
144
1.0
145
0.0
146
1.0
147
0.09
 71
     0
 72
     0
 73
     1
 74
     1
 75
     0
 76
     0
 77
     0
 78
     0
170
     0
171
     2
172
     0
173
     0
174
     0
175
     0
176
     0
177
     0
178
     0
  0
DIMSTYLE
  2
QCADDIMSTYLE
 70
     0
  3

  4

  5

  6

  7

 40
1.0
 41
0.18
 42
0.0625
 43
0.38
 44
0.18
 45
0.0
 46
0.0
 47
0.0
 48
0.0
140
0.18
141
0.09
142
0.0
143
25.4
144
1.0
145
0.0
146
1.0
147
0.09
 71
     0
 72
     0
 73
     0
 74
     1
 75
     0
 76
     0
 77
     1
 78
     0
170
     0
171
     2
172
     0
173
     0
174
     0
175
     0
176
     0
177
     0
178
     0
  0
ENDTAB
  0
ENDSEC
  0
SECTION
  2
BLOCKS
  0
BLOCK
  8
0
  2
$MODEL_SPACE
 70
     0
 10
0.0
 20
0.0
 30
0.0
  3
$MODEL_SPACE
  1

  0
ENDBLK
  5
70712C3
  8
0
  0
BLOCK
 67
     1
  8
0
  2
$PAPER_SPACE
 70
     0
 10
0.0
 20
0.0
 30
0.0
  3
$PAPER_SPACE
  1

  0
ENDBLK
  5
70712BF
 67
     1
  8
0
  0
ENDSEC
  0
SECTION
  2
ENTITIES
  0
LINE
  5
70CC7
  8
0
 10
-2517.463804
 20
27298.38666
 30
0.0
 11
-2417.447675
 21
27298.38666
 31
0.0
  0
LINE
  5
70CC8
  8
0
 10
-2417.447675
 20
27298.38666
 30
0.0
 11
-2417.447675
 21
23972.136601
 31
0.0
  0
LINE
  5
70CC9
  8
0
 10
-2417.447675
 20
23972.136601
 30
0.0
 11
-2517.463804
 21
23972.136601
 31
0.0
  0
LINE
  5
70CCA
  8
0
 10
-2517.463804
 20
23972.136601
 30
0.0
 11
-2517.463804
 21
27298.38666
 31
0.0
  0
LINE
  5
7070FC3
  8
0
 10
-2517.504654
 20
23748.426884
 30
0.0
 11
-2417.488526
 21
23748.426884
 31
0.0
  0
LINE
  5
7070FC4
  8
0
 10
-2417.488526
 20
23748.426884
 30
0.0
 11
-2417.488526
 21
21088.399355
 31
0.0
  0
LINE
  5
7070FC6
  8
0
 10
-2517.504654
 20
21088.399355
 30
0.0
 11
-2517.504654
 21
23748.426884
 31
0.0
  0
LINE
  5
7070FCE
  8
0
 10
-2517.504654
 20
21088.399355
 30
0.0
 11
-2417.488526
 21
21088.399355
 31
0.0
  0
LINE
  5
7070FD1
  8
0
 10
-1085.964046
 20
27298.38666
 30
0.0
 11
-1185.980175
 21
27298.38666
 31
0.0
  0
LINE
  5
7070FD2
  8
0
 10
-1185.980175
 20
27298.38666
 30
0.0
 11
-1185.980175
 21
23972.136601
 31
0.0
  0
LINE
  5
7070FD3
  8
0
 10
-1185.980175
 20
23972.136601
 30
0.0
 11
-1085.964046
 21
23972.136601
 31
0.0
  0
LINE
  5
7070FD4
  8
0
 10
-1085.964046
 20
23972.136601
 30
0.0
 11
-1085.964046
 21
27298.38666
 31
0.0
  0
LINE
  5
7070FD7
  8
0
 10
-1186.021025
 20
23748.426884
 30
0.0
 11
-1086.004897
 21
23748.426884
 31
0.0
  0
LINE
  5
7070FD8
  8
0
 10
-1086.004897
 20
23748.426884
 30
0.0
 11
-1086.004897
 21
21088.399355
 31
0.0
  0
LINE
  5
7070FD9
  8
0
 10
-1186.021025
 20
21088.399355
 30
0.0
 11
-1186.021025
 21
23748.426884
 31
0.0
  0
LINE
  5
7070FDA
  8
0
 10
-1186.021025
 20
21088.399355
 30
0.0
 11
-1086.004897
 21
21088.399355
 31
0.0
  0
LINE
  5
7070FDC
  8
0
 10
-717.463804
 20
27298.38666
 30
0.0
 11
-617.447675
 21
27298.38666
 31
0.0
  0
LINE
  5
7070FDD
  8
0
 10
-617.447675
 20
27298.38666
 30
0.0
 11
-617.447675
 21
23972.136601
 31
0.0
  0
LINE
  5
7070FDE
  8
0
 10
-617.447675
 20
23972.136601
 30
0.0
 11
-717.463804
 21
23972.136601
 31
0.0
  0
LINE
  5
7070FDF
  8
0
 10
-717.463804
 20
23972.136601
 30
0.0
 11
-717.463804
 21
27298.38666
 31
0.0
  0
LINE
  5
7070FE0
  8
0
 10
-717.504654
 20
23748.426884
 30
0.0
 11
-617.488526
 21
23748.426884
 31
0.0
  0
LINE
  5
7070FE1
  8
0
 10
-617.488526
 20
23748.426884
 30
0.0
 11
-617.488526
 21
21088.399355
 31
0.0
  0
LINE
  5
7070FE3
  8
0
 10
-717.504654
 20
21088.399355
 30
0.0
 11
-717.504654
 21
23748.426884
 31
0.0
  0
LINE
  5
7070FE4
  8
0
 10
-717.504654
 20
21088.399355
 30
0.0
 11
-617.488526
 21
21088.399355
 31
0.0
  0
LINE
  5
7070FE5
  8
0
 10
714.035954
 20
27298.38666
 30
0.0
 11
614.019825
 21
27298.38666
 31
0.0
  0
LINE
  5
7070FE6
  8
0
 10
614.019825
 20
27298.38666
 30
0.0
 11
614.019825
 21
23972.136601
 31
0.0
  0
LINE
  5
7070FE7
  8
0
 10
614.019825
 20
23972.136601
 30
0.0
 11
714.035954
 21
23972.136601
 31
0.0
  0
LINE
  5
7070FE8
  8
0
 10
714.035954
 20
23972.136601
 30
0.0
 11
714.035954
 21
27298.38666
 31
0.0
  0
LINE
  5
7070FEA
  8
0
 10
613.978975
 20
23748.426884
 30
0.0
 11
713.995103
 21
23748.426884
 31
0.0
  0
LINE
  5
7070FEB
  8
0
 10
713.995103
 20
23748.426884
 30
0.0
 11
713.995103
 21
21088.399355
 31
0.0
  0
LINE
  5
7070FEC
  8
0
 10
613.978975
 20
21088.399355
 30
0.0
 11
613.978975
 21
23748.426884
 31
0.0
  0
LINE
  5
7070FED
  8
0
 10
613.978975
 20
21088.399355
 30
0.0
 11
713.995103
 21
21088.399355
 31
0.0
  0
ARC
  5
7071072
  8
0
 10
-901.58689
 20
16365.706941
 30
0.0
 40
1999.99999806
 50
0.0
 51
89.14004
  0
LINE
  5
70710A7
  8
0
 10
715.78259
 20
-2999.999239
 30
0.0
 11
615.75826
 21
-2999.999239
 31
0.0
  0
LINE
  5
70710A8
  8
0
 10
615.75826
 20
-2999.999239
 30
0.0
 11
615.75826
 21
2999.999288
 31
0.0
  0
LINE
  5
70710A9
  8
0
 10
615.75826
 20
2999.999288
 30
0.0
 11
715.78259
 21
2999.999288
 31
0.0
  0
LINE
  5
70710AA
  8
0
 10
715.78259
 20
2999.999288
 30
0.0
 11
715.78259
 21
-2999.999239
 31
0.0
  0
LINE
  5
70710AD
  8
0
 10
-715.75527
 20
2999.999239
 30
0.0
 11
-615.75826
 21
2999.999239
 31
0.0
  0
LINE
  5
70710AE
  8
0
 10
-615.75826
 20
2999.999239
 30
0.0
 11
-615.75826
 21
-2999.999239
 31
0.0
  0
LINE
  5
70710AF
  8
0
 10
-615.75826
 20
-2999.999239
 30
0.0
 11
-715.75527
 21
-2999.999239
 31
0.0
  0
LINE
  5
70710B0
  8
0
 10
-715.75527
 20
-2999.999239
 30
0.0
 11
-715.75527
 21
2999.999239
 31
0.0
  0
LINE
  5
70710B1
  8
0
 10
715.78259
 20
5170.00076
 30
0.0
 11
615.75826
 21
5170.00076
 31
0.0
  0
LINE
  5
70710B2
  8
0
 10
615.75826
 20
5170.00076
 30
0.0
 11
615.75826
 21
11169.999287
 31
0.0
  0
LINE
  5
70710B3
  8
0
 10
615.75826
 20
11169.999287
 30
0.0
 11
715.78259
 21
11169.999287
 31
0.0
  0
LINE
  5
70710B4
  8
0
 10
715.78259
 20
11169.999287
 30
0.0
 11
715.78259
 21
5170.00076
 31
0.0
  0
LINE
  5
70710B5
  8
0
 10
-715.75527
 20
11169.999238
 30
0.0
 11
-615.75826
 21
11169.999238
 31
0.0
  0
LINE
  5
70710B6
  8
0
 10
-615.75826
 20
11169.999238
 30
0.0
 11
-615.75826
 21
5170.00076
 31
0.0
  0
LINE
  5
70710B7
  8
0
 10
-615.75826
 20
5170.00076
 30
0.0
 11
-715.75527
 21
5170.00076
 31
0.0
  0
LINE
  5
70710B8
  8
0
 10
-715.75527
 20
5170.00076
 30
0.0
 11
-715.75527
 21
11169.999238
 31
0.0
  0
LINE
  5
70710C9
  8
0
 10
-10495.189608
 20
14851.238686
 30
0.0
 11
-7795.190588
 21
14851.238686
 31
0.0
  0
LINE
  5
70710CA
  8
0
 10
-7795.190588
 20
14851.238686
 30
0.0
 11
-7795.190588
 21
14751.248032
 31
0.0
  0
LINE
  5
70710CB
  8
0
 10
-7795.190588
 20
14751.248032
 30
0.0
 11
-10495.189608
 21
14751.248032
 31
0.0
  0
LINE
  5
70710CC
  8
0
 10
-10495.189608
 20
14751.248032
 30
0.0
 11
-10495.189608
 21
14851.238686
 31
0.0
  0
LINE
  5
70710CD
  8
0
 10
-10495.19606
 20
16182.732799
 30
0.0
 11
-7795.197048
 21
16182.732799
 31
0.0
  0
LINE
  5
70710CE
  8
0
 10
-7795.197048
 20
16182.732799
 30
0.0
 11
-7795.197048
 21
16082.745887
 31
0.0
  0
LINE
  5
70710CF
  8
0
 10
-7795.197048
 20
16082.745887
 30
0.0
 11
-10495.19606
 21
16082.745887
 31
0.0
  0
LINE
  5
70710D0
  8
0
 10
-10495.19606
 20
16082.745887
 30
0.0
 11
-10495.19606
 21
16182.732799
 31
0.0
  0
LINE
  5
70710D1
  8
0
 10
-10495.19606
 20
16651.251051
 30
0.0
 11
-7795.197048
 21
16651.251051
 31
0.0
  0
LINE
  5
70710D2
  8
0
 10
-7795.197048
 20
16651.251051
 30
0.0
 11
-7795.197048
 21
16551.264139
 31
0.0
  0
LINE
  5
70710D3
  8
0
 10
-7795.197048
 20
16551.264139
 30
0.0
 11
-10495.19606
 21
16551.264139
 31
0.0
  0
LINE
  5
70710D4
  8
0
 10
-10495.19606
 20
16551.264139
 30
0.0
 11
-10495.19606
 21
16651.251051
 31
0.0
  0
LINE
  5
70710D5
  8
0
 10
-10495.20189
 20
17982.748906
 30
0.0
 11
-7795.2035
 21
17982.748906
 31
0.0
  0
LINE
  5
70710D6
  8
0
 10
-7795.2035
 20
17982.748906
 30
0.0
 11
-7795.2035
 21
17882.758253
 31
0.0
  0
LINE
  5
70710D7
  8
0
 10
-7795.2035
 20
17882.758253
 30
0.0
 11
-10495.20189
 21
17882.758253
 31
0.0
  0
LINE
  5
70710D8
  8
0
 10
-10495.20189
 20
17882.758253
 30
0.0
 11
-10495.20189
 21
17982.748906
 31
0.0
  0
LINE
  5
70710D9
  8
0
 10
-2527.714881
 20
27598.875112
 30
0.0
 11
1022.285599
 21
27598.875112
 31
0.0
  0
LINE
  5
70710DA
  8
0
 10
1022.285599
 20
27598.875112
 30
0.0
 11
1022.285599
 21
27498.892323
 31
0.0
  0
LINE
  5
70710DB
  8
0
 10
1022.285599
 20
27498.892323
 30
0.0
 11
-2527.714881
 21
27498.892323
 31
0.0
  0
LINE
  5
70710DC
  8
0
 10
-2527.714881
 20
27498.892323
 30
0.0
 11
-2527.714881
 21
27598.875112
 31
0.0
  0
LINE
  5
70710DD
  8
0
 10
-2527.69526
 20
23898.875117
 30
0.0
 11
1022.30522
 21
23898.875117
 31
0.0
  0
LINE
  5
70710DE
  8
0
 10
1022.30522
 20
23898.875117
 30
0.0
 11
1022.30522
 21
23798.892328
 31
0.0
  0
LINE
  5
70710DF
  8
0
 10
1022.30522
 20
23798.892328
 30
0.0
 11
-2527.69526
 21
23798.892328
 31
0.0
  0
LINE
  5
70710E0
  8
0
 10
-2527.69526
 20
23798.892328
 30
0.0
 11
-2527.69526
 21
23898.875117
 31
0.0
  0
VIEWPORT
  5
7071374
 67
     1
  8
0
 62
    18
 10
5.25
 20
4.0
 30
0.0
 40
11.638
 41
8.993
 68
     1
 69
     1
1001
ACAD
1000
MVIEW
1002
{
1070
    16
1010
0.0
1020
0.0
1030
0.0
1020
0.0
1030
0.0
1010
0.0
1020
0.0
1030
1.0
1020
0.0
1030
1.0
1040
0.0
1040
8.993
1040
5.25
1040
4.0
1040
50.0
1040
0.0
1040
0.0
1070
     0
1070
   100
1070
     0
1070
     3
1070
     0
1070
     0
1070
     0
1070
     0
1040
0.0
1040
0.0
1040
0.0
1040
0.5
1040
0.5
1040
0.5
1040
0.5
1070
     0
1002
{
1002
}
1002
}
  0
ENDSEC
  0
EOF
