  0
SECTION
  2
HEADER
  9
$ACADVER
  1
AC1009
  9
$INSBASE
 10
0.0
 20
0.0
 30
0.0
  9
$EXTMIN
 10
-3500.0
 20
-2542.5001080000002
 30
0.0
  9
$EXTMAX
 10
3500.0
 20
633.99999999999898
 30
0.0
  9
$LIMMIN
 10
-30000.0
 20
-15000.0
  9
$LIMMAX
 10
30000.0
 20
15000.0
  9
$ORTHOMODE
 70
     1
  9
$REGENMODE
 70
     1
  9
$FILLMODE
 70
     1
  9
$QTEXTMODE
 70
     0
  9
$MIRRTEXT
 70
     1
  9
$DRAGMODE
 70
     2
  9
$LTSCALE
 40
1.0
  9
$OSMODE
 70
   575
  9
$ATTMODE
 70
     1
  9
$TEXTSIZE
 40
0.2
  9
$TRACEWID
 40
0.05
  9
$TEXTSTYLE
  7
STANDARD
  9
$CLAYER
  8
0
  9
$CELTYPE
  6
BYBLOCK
  9
$CECOLOR
 62
   256
  9
$DIMSCALE
 40
1.0
  9
$DIMASZ
 40
0.18
  9
$DIMEXO
 40
0.0625
  9
$DIMDLI
 40
0.38
  9
$DIMRND
 40
0.0
  9
$DIMDLE
 40
0.0
  9
$DIMEXE
 40
0.18
  9
$DIMTP
 40
0.0
  9
$DIMTM
 40
0.0
  9
$DIMTXT
 40
0.18
  9
$DIMCEN
 40
0.09
  9
$DIMTSZ
 40
0.0
  9
$DIMTOL
 70
     0
  9
$DIMLIM
 70
     0
  9
$DIMTIH
 70
     1
  9
$DIMTOH
 70
     1
  9
$DIMSE1
 70
     0
  9
$DIMSE2
 70
     0
  9
$DIMTAD
 70
     0
  9
$DIMZIN
 70
     0
  9
$DIMBLK
  1

  9
$DIMASO
 70
     1
  9
$DIMSHO
 70
     1
  9
$DIMPOST
  1

  9
$DIMAPOST
  1

  9
$DIMALT
 70
     0
  9
$DIMALTD
 70
     2
  9
$DIMALTF
 40
25.399999999999999
  9
$DIMLFAC
 40
1.0
  9
$DIMTOFL
 70
     0
  9
$DIMTVP
 40
0.0
  9
$DIMTIX
 70
     0
  9
$DIMSOXD
 70
     0
  9
$DIMSAH
 70
     0
  9
$DIMBLK1
  1

  9
$DIMBLK2
  1

  9
$DIMSTYLE
  2
STANDARD
  9
$DIMCLRD
 70
     0
  9
$DIMCLRE
 70
     0
  9
$DIMCLRT
 70
     0
  9
$DIMTFAC
 40
1.0
  9
$DIMGAP
 40
0.09
  9
$LUNITS
 70
     2
  9
$LUPREC
 70
     4
  9
$SKETCHINC
 40
0.1
  9
$FILLETRAD
 40
0.5
  9
$AUNITS
 70
     0
  9
$AUPREC
 70
     0
  9
$MENU
  1
.
  9
$ELEVATION
 40
0.0
  9
$PELEVATION
 40
0.0
  9
$THICKNESS
 40
0.0
  9
$LIMCHECK
 70
     0
  9
$BLIPMODE
 70
     0
  9
$CHAMFERA
 40
0.5
  9
$CHAMFERB
 40
0.5
  9
$SKPOLY
 70
     0
  9
$TDCREATE
 40
2458045.2098549651
  9
$TDUPDATE
 40
2458045.4068192942
  9
$TDINDWG
 40
0.044694213
  9
$TDUSRTIMER
 40
0.0446941435
  9
$USRTIMER
 70
     1
  9
$ANGBASE
 50
0.0
  9
$ANGDIR
 70
     0
  9
$PDMODE
 70
     0
  9
$PDSIZE
 40
0.0
  9
$PLINEWID
 40
0.0
  9
$COORDS
 70
     1
  9
$SPLFRAME
 70
     0
  9
$SPLINETYPE
 70
     6
  9
$SPLINESEGS
 70
     8
  9
$ATTDIA
 70
     1
  9
$ATTREQ
 70
     1
  9
$HANDLING
 70
     1
  9
$HANDSEED
  5
8FCC7
  9
$SURFTAB1
 70
     6
  9
$SURFTAB2
 70
     6
  9
$SURFTYPE
 70
     6
  9
$SURFU
 70
     6
  9
$SURFV
 70
     6
  9
$UCSNAME
  2

  9
$UCSORG
 10
0.0
 20
0.0
 30
0.0
  9
$UCSXDIR
 10
1.0
 20
0.0
 30
0.0
  9
$UCSYDIR
 10
0.0
 20
1.0
 30
0.0
  9
$PUCSNAME
  2

  9
$PUCSORG
 10
0.0
 20
0.0
 30
0.0
  9
$PUCSXDIR
 10
1.0
 20
0.0
 30
0.0
  9
$PUCSYDIR
 10
0.0
 20
1.0
 30
0.0
  9
$USERI1
 70
     0
  9
$USERI2
 70
     0
  9
$USERI3
 70
     0
  9
$USERI4
 70
     0
  9
$USERI5
 70
     0
  9
$USERR1
 40
0.0
  9
$USERR2
 40
0.0
  9
$USERR3
 40
0.0
  9
$USERR4
 40
0.0
  9
$USERR5
 40
0.0
  9
$WORLDVIEW
 70
     0
  9
$SHADEDGE
 70
     3
  9
$SHADEDIF
 70
    70
  9
$TILEMODE
 70
     1
  9
$MAXACTVP
 70
    64
  9
$PLIMCHECK
 70
     0
  9
$PEXTMIN
 10
1.0000000000000000E+020
 20
1.0000000000000000E+020
 30
1.0000000000000000E+020
  9
$PEXTMAX
 10
-1.0000000000000000E+020
 20
-1.0000000000000000E+020
 30
-1.0000000000000000E+020
  9
$PLIMMIN
 10
0.0
 20
0.0
  9
$PLIMMAX
 10
12.0
 20
9.0
  9
$UNITMODE
 70
     0
  9
$VISRETAIN
 70
     1
  9
$PLINEGEN
 70
     0
  9
$PSLTSCALE
 70
     1
  0
ENDSEC
  0
SECTION
  2
TABLES
  0
TABLE
  2
VPORT
 70
     1
  0
VPORT
  2
*ACTIVE
 70
     0
 10
0.0
 20
0.0
 11
1.0
 21
1.0
 12
-615.27398537984755
 22
-1230.6038753764581
 13
0.0
 23
0.0
 14
0.5
 24
0.5
 15
0.5
 25
0.5
 16
0.0
 26
0.0
 36
1.0
 17
0.0
 27
0.0
 37
0.0
 40
5132.5856156208474
 41
1.8688245315161831
 42
50.0
 43
0.0
 44
0.0
 50
0.0
 51
0.0
 71
     0
 72
   100
 73
     1
 74
     3
 75
     0
 76
     0
 77
     0
 78
     0
  0
ENDTAB
  0
TABLE
  2
LTYPE
 70
     1
  0
LTYPE
  2
CONTINUOUS
 70
     0
  3
Solid line
 72
    65
 73
     0
 40
0.0
  0
ENDTAB
  0
TABLE
  2
LAYER
 70
     1
  0
LAYER
  2
0
 70
     0
 62
     7
  6
CONTINUOUS
  0
ENDTAB
  0
TABLE
  2
STYLE
 70
     2
  0
STYLE
  2
STANDARD
 70
     0
 40
0.0
 41
1.0
 50
0.0
 71
     0
 42
0.2
  3
txt
  4

  0
STYLE
  2
ANNOTATIVE
 70
     0
 40
0.0
 41
1.0
 50
0.0
 71
     0
 42
0.2
  3
txt
  4

  0
ENDTAB
  0
TABLE
  2
VIEW
 70
     0
  0
ENDTAB
  0
TABLE
  2
UCS
 70
     0
  0
ENDTAB
  0
TABLE
  2
APPID
 70
     5
  0
APPID
  2
ACAD
 70
     0
  0
APPID
  2
ACADANNOTATIVE
 70
     0
  0
APPID
  2
ACAD_EXEMPT_FROM_CAD_STANDARDS
 70
     0
  0
APPID
  2
ACAD_NAV_VCDISPLAY
 70
     0
  0
APPID
  2
ACAD_MLEADERVER
 70
     0
  0
ENDTAB
  0
TABLE
  2
DIMSTYLE
 70
     2
  0
DIMSTYLE
  2
STANDARD
 70
     0
  3

  4

  5

  6

  7

 40
1.0
 41
0.18
 42
0.0625
 43
0.38
 44
0.18
 45
0.0
 46
0.0
 47
0.0
 48
0.0
140
0.18
141
0.09
142
0.0
143
25.399999999999999
144
1.0
145
0.0
146
1.0
147
0.09
 71
     0
 72
     0
 73
     1
 74
     1
 75
     0
 76
     0
 77
     0
 78
     0
170
     0
171
     2
172
     0
173
     0
174
     0
175
     0
176
     0
177
     0
178
     0
  0
DIMSTYLE
  2
ANNOTATIVE
 70
     0
  3

  4

  5

  6

  7

 40
1.0
 41
0.18
 42
0.0625
 43
0.38
 44
0.18
 45
0.0
 46
0.0
 47
0.0
 48
0.0
140
0.18
141
0.09
142
0.0
143
25.399999999999999
144
1.0
145
0.0
146
1.0
147
0.09
 71
     0
 72
     0
 73
     1
 74
     1
 75
     0
 76
     0
 77
     0
 78
     0
170
     0
171
     2
172
     0
173
     0
174
     0
175
     0
176
     0
177
     0
178
     0
  0
ENDTAB
  0
ENDSEC
  0
SECTION
  2
BLOCKS
  0
BLOCK
  8
0
  2
$MODEL_SPACE
 70
     0
 10
0.0
 20
0.0
 30
0.0
  3
$MODEL_SPACE
  1

  0
ENDBLK
  5
8FC6A
  8
0
  0
BLOCK
 67
     1
  8
0
  2
$PAPER_SPACE
 70
     0
 10
0.0
 20
0.0
 30
0.0
  3
$PAPER_SPACE
  1

  0
ENDBLK
  5
8FC66
 67
     1
  8
0
  0
ENDSEC
  0
SECTION
  2
ENTITIES
  0
LINE
  5
8DE71
  8
0
  6
CONTINUOUS
 62
     7
 10
2875.0000000000018
 20
-452.50000000000023
 30
0.0
 11
-2875.0
 21
-452.5
 31
0.0
  0
LINE
  5
8DE96
  8
0
  6
CONTINUOUS
 62
     7
 10
-2691.8658599999981
 20
-572.5
 30
0.0
 11
-2875.0
 21
-572.5
 31
0.0
  0
LINE
  5
8DF3A
  8
0
  6
CONTINUOUS
 62
     7
 10
-2680.0
 20
452.49999999999892
 30
0.0
 11
-2680.0
 21
-452.5
 31
0.0
  0
LINE
  5
8DF3B
  8
0
  6
CONTINUOUS
 62
     7
 10
-2620.0
 20
452.49999999999892
 30
0.0
 11
-2620.0
 21
-452.5
 31
0.0
  0
LINE
  5
8DF4D
  8
0
  6
CONTINUOUS
 62
     7
 10
-41.865860000001689
 20
-572.5
 30
0.0
 11
-2608.1341399999992
 21
-572.5
 31
0.0
  0
LINE
  5
8DF54
  8
0
  6
CONTINUOUS
 62
    15
 10
-2900.5
 20
-91.0
 30
0.0
 11
-2900.5
 21
-102.0
 31
0.0
  0
LINE
  5
8DF55
  8
0
  6
CONTINUOUS
 62
    15
 10
-2720.5
 20
-91.0
 30
0.0
 11
-2720.5
 21
-102.0
 31
0.0
  0
LINE
  5
8DF58
  8
0
  6
CONTINUOUS
 62
    15
 10
-2705.5
 20
154.0
 30
0.0
 11
-2705.5
 21
-86.0
 31
0.0
  0
LINE
  5
8DF59
  8
0
  6
CONTINUOUS
 62
    15
 10
-2915.5
 20
154.0
 30
0.0
 11
-2915.5
 21
49.0
 31
0.0
  0
LINE
  5
8DF5A
  8
0
  6
CONTINUOUS
 62
    15
 10
-2889.3081700000012
 20
-81.0
 30
0.0
 11
-2965.5
 21
-81.0
 31
0.0
  0
LINE
  5
8DF5B
  8
0
  6
CONTINUOUS
 62
    15
 10
-2889.3081700000012
 20
49.0
 30
0.0
 11
-2965.5
 21
49.0
 31
0.0
  0
LINE
  5
8DF5C
  8
0
  6
CONTINUOUS
 62
    15
 10
-2889.3081700000012
 20
49.0
 30
0.0
 11
-2889.3081700000012
 21
-81.0
 31
0.0
  0
LINE
  5
8DF5D
  8
0
  6
CONTINUOUS
 62
    15
 10
-2965.5
 20
-81.0
 30
0.0
 11
-2965.5
 21
49.0
 31
0.0
  0
LINE
  5
8DF63
  8
0
  6
CONTINUOUS
 62
    15
 10
-2715.0
 20
-91.0
 30
0.0
 11
-2906.0
 21
-91.0
 31
0.0
  0
LINE
  5
8DF64
  8
0
  6
CONTINUOUS
 62
    15
 10
-2935.5
 20
-102.0
 30
0.0
 11
-2900.5
 21
-102.0
 31
0.0
  0
LINE
  5
8DF6A
  8
0
  6
CONTINUOUS
 62
    15
 10
-2723.3978600000009
 20
185.0
 30
0.0
 11
-2897.6021399999991
 21
185.0
 31
0.0
  0
LINE
  5
8DF9D
  8
0
  6
CONTINUOUS
 62
    15
 10
-2921.0272156140418
 20
-81.0
 30
0.0
 11
-2906.0
 21
-91.0
 31
0.0
  0
LINE
  5
8DF9E
  8
0
  6
CONTINUOUS
 62
    15
 10
-2705.5
 20
-86.0
 30
0.0
 11
-2715.0
 21
-91.0
 31
0.0
  0
LINE
  5
8DFA1
  8
0
  6
CONTINUOUS
 62
    15
 10
-2915.5
 20
154.0
 30
0.0
 11
-2897.6021399999991
 21
185.0
 31
0.0
  0
LINE
  5
8DFA3
  8
0
  6
CONTINUOUS
 62
    15
 10
-2705.5
 20
154.0
 30
0.0
 11
-2723.3978600000009
 21
185.0
 31
0.0
  0
LINE
  5
8DFB1
  8
0
  6
CONTINUOUS
 62
    15
 10
-2835.0
 20
-358.5
 30
0.0
 11
-2891.5979999999981
 21
-327.5
 31
0.0
  0
LINE
  5
8DFB2
  8
0
  6
CONTINUOUS
 62
    15
 10
-2775.0
 20
-358.5
 30
0.0
 11
-2718.0650100000012
 21
-326.67589350000031
 31
0.0
  0
LINE
  5
8DFBC
  8
0
  6
CONTINUOUS
 62
    15
 10
-2680.0
 20
-216.9955239999999
 30
0.0
 11
-2712.9964
 21
-216.9955239999999
 31
0.0
  0
LINE
  5
8DFBD
  8
0
  6
CONTINUOUS
 62
    15
 10
-2712.9964
 20
-216.9955239999999
 30
0.0
 11
-2712.9964
 21
-347.99552399999988
 31
0.0
  0
LINE
  5
8DFBE
  8
0
  6
CONTINUOUS
 62
    15
 10
-2680.0
 20
-347.99552399999988
 30
0.0
 11
-2712.9964
 21
-347.99552399999988
 31
0.0
  0
LINE
  5
8DFC8
  8
0
  6
CONTINUOUS
 62
    15
 10
-2775.0
 20
-358.5
 30
0.0
 11
-2832.5
 21
-358.5
 31
0.0
  0
LINE
  5
8DFD3
  8
0
  6
CONTINUOUS
 62
    15
 10
-2912.50189
 20
-213.5
 30
0.0
 11
-2907.0735700000009
 21
-224.34800400000049
 31
0.0
  0
LINE
  5
8DFD4
  8
0
  6
CONTINUOUS
 62
    15
 10
-2907.0735700000009
 20
-224.34800400000049
 30
0.0
 11
-2907.0735700000009
 21
-249.34800400000049
 31
0.0
  0
LINE
  5
8DFDB
  8
0
  6
CONTINUOUS
 62
    15
 10
-2891.5979999999981
 20
-327.5
 30
0.0
 11
-2891.5979999999981
 21
-299.5
 31
0.0
  0
LINE
  5
8DFDE
  8
0
  6
CONTINUOUS
 62
    15
 10
-2891.5979999999981
 20
-299.5
 30
0.0
 11
-2907.0735700000009
 21
-249.34800400000049
 31
0.0
  0
LINE
  5
8DFE0
  8
0
  6
CONTINUOUS
 62
    15
 10
-2723.1336200000001
 20
-314.5
 30
0.0
 11
-2723.1336200000001
 21
-249.34800400000049
 31
0.0
  0
LINE
  5
8DFE1
  8
0
  6
CONTINUOUS
 62
    15
 10
-2912.50189
 20
-213.5
 30
0.0
 11
-2912.50189
 21
-193.5
 31
0.0
  0
LINE
  5
8DFE6
  8
0
  6
CONTINUOUS
 62
    15
 10
-2723.1336200000001
 20
-314.5
 30
0.0
 11
-2712.9964
 21
-338.85178700000051
 31
0.0
  0
LINE
  5
8DFE8
  8
0
  6
CONTINUOUS
 62
    15
 10
-2697.5
 20
-193.5
 30
0.0
 11
-2697.5
 21
-216.9955239999999
 31
0.0
  0
LINE
  5
8DFE9
  8
0
  6
CONTINUOUS
 62
    15
 10
-2900.5
 20
-193.5
 30
0.0
 11
-2900.5
 21
-178.5
 31
0.0
  0
LINE
  5
8DFEC
  8
0
  6
CONTINUOUS
 62
    15
 10
-2855.5040000000008
 20
-141.0
 30
0.0
 11
-2900.5
 21
-178.5
 31
0.0
  0
LINE
  5
8DFED
  8
0
  6
CONTINUOUS
 62
    15
 10
-2890.4599999999991
 20
-126.0
 30
0.0
 11
-2855.5040000000008
 21
-141.0
 31
0.0
  0
LINE
  5
8DFEE
  8
0
  6
CONTINUOUS
 62
    15
 10
-2765.5040000000022
 20
-178.5
 30
0.0
 11
-2765.5040000000022
 21
-141.02936399999999
 31
0.0
  0
LINE
  5
8DFF0
  8
0
  6
CONTINUOUS
 62
    15
 10
-2730.4599999999991
 20
-126.0
 30
0.0
 11
-2765.5040000000022
 21
-141.02936399999999
 31
0.0
  0
LINE
  5
8DFF1
  8
0
  6
CONTINUOUS
 62
    15
 10
-2720.5
 20
-193.5
 30
0.0
 11
-2720.5
 21
-178.5
 31
0.0
  0
LINE
  5
8DFF2
  8
0
  6
CONTINUOUS
 62
    15
 10
-2765.5040000000022
 20
-178.5
 30
0.0
 11
-2720.5
 21
-178.5
 31
0.0
  0
LINE
  5
8DFF3
  8
0
  6
CONTINUOUS
 62
    15
 10
-2935.5
 20
-102.0
 30
0.0
 11
-2935.5
 21
-126.0
 31
0.0
  0
LINE
  5
8DFF4
  8
0
  6
CONTINUOUS
 62
    15
 10
-2685.5
 20
-102.0
 30
0.0
 11
-2685.5
 21
-126.0
 31
0.0
  0
LINE
  5
8E00C
  8
0
  6
CONTINUOUS
 62
    15
 10
-2685.5
 20
-126.0
 30
0.0
 11
-2935.5
 21
-126.0
 31
0.0
  0
LINE
  5
8E010
  8
0
  6
CONTINUOUS
 62
    15
 10
-2907.0735700000009
 20
-224.34800400000049
 30
0.0
 11
-2712.9964
 21
-224.34800400000049
 31
0.0
  0
LINE
  5
8E011
  8
0
  6
CONTINUOUS
 62
    15
 10
-2907.0735700000009
 20
-249.34800400000049
 30
0.0
 11
-2712.9964
 21
-249.34800400000049
 31
0.0
  0
CIRCLE
  5
8E27B
  8
0
  6
CONTINUOUS
 62
     6
 10
-2650.0
 20
-589.0
 30
0.0
 40
45.0
  0
LINE
  5
8FB56
  8
0
  6
BYBLOCK
 10
-2875.0
 20
-452.5
 30
0.0
 11
-2875.0
 21
-572.5
 31
0.0
  0
LINE
  5
8FB5D
  8
0
  6
CONTINUOUS
 62
    15
 10
-2720.5
 20
-102.0
 30
0.0
 11
-2685.5
 21
-102.0
 31
0.0
  0
LINE
  5
8FB60
  8
0
  6
BYBLOCK
 10
-2697.5
 20
-193.5
 30
0.0
 11
-2720.5
 21
-193.5
 31
0.0
  0
LINE
  5
8FB61
  8
0
  6
BYBLOCK
 10
-2900.5
 20
-193.5
 30
0.0
 11
-2912.50189
 21
-193.5
 31
0.0
  0
LINE
  5
8FB64
  8
0
  6
CONTINUOUS
 62
     7
 10
-29.999999999999091
 20
452.49999999999892
 30
0.0
 11
-29.999999999999091
 21
-452.5
 31
0.0
  0
LINE
  5
8FB65
  8
0
  6
CONTINUOUS
 62
     7
 10
30.000000000000909
 20
452.49999999999892
 30
0.0
 11
30.000000000000909
 21
-452.5
 31
0.0
  0
CIRCLE
  5
8FB66
  8
0
  6
CONTINUOUS
 62
     6
 10
0.0000000000009095
 20
-589.0
 30
0.0
 40
45.0
  0
LINE
  5
8FB6A
  8
0
  6
CONTINUOUS
 62
     7
 10
2620.0
 20
452.49999999999892
 30
0.0
 11
2620.0
 21
-452.5
 31
0.0
  0
LINE
  5
8FB6B
  8
0
  6
CONTINUOUS
 62
     7
 10
2680.0
 20
452.49999999999892
 30
0.0
 11
2680.0
 21
-452.5
 31
0.0
  0
CIRCLE
  5
8FB6C
  8
0
  6
CONTINUOUS
 62
     6
 10
2650.0
 20
-589.0
 30
0.0
 40
45.0
  0
LINE
  5
8FB6E
  8
0
  6
CONTINUOUS
 62
     7
 10
2691.8658599999999
 20
-572.50000000000034
 30
0.0
 11
2875.0000000000018
 21
-572.50000000000034
 31
0.0
  0
LINE
  5
8FB6F
  8
0
  6
CONTINUOUS
 62
     7
 10
41.865860000003451
 20
-572.5
 30
0.0
 11
2608.134140000001
 21
-572.50000000000034
 31
0.0
  0
LINE
  5
8FB70
  8
0
  6
BYBLOCK
 10
2875.0000000000018
 20
-452.50000000000023
 30
0.0
 11
2875.0000000000018
 21
-572.50000000000034
 31
0.0
  0
LINE
  5
8FB71
  8
0
  6
CONTINUOUS
 62
     7
 10
2875.0000000000018
 20
452.49999999999937
 30
0.0
 11
-2875.0
 21
452.49999999999892
 31
0.0
  0
LINE
  5
8FB72
  8
0
  6
CONTINUOUS
 62
     7
 10
-2691.8658599999981
 20
572.49999999999886
 30
0.0
 11
-2875.0
 21
572.49999999999886
 31
0.0
  0
LINE
  5
8FB73
  8
0
  6
CONTINUOUS
 62
     7
 10
-41.865860000001689
 20
572.49999999999886
 30
0.0
 11
-2608.1341399999992
 21
572.49999999999886
 31
0.0
  0
CIRCLE
  5
8FB74
  8
0
  6
CONTINUOUS
 62
     6
 10
-2650.0
 20
588.99999999999886
 30
0.0
 40
45.0
  0
LINE
  5
8FB75
  8
0
  6
BYBLOCK
 10
-2875.0
 20
452.49999999999892
 30
0.0
 11
-2875.0
 21
572.49999999999886
 31
0.0
  0
CIRCLE
  5
8FB76
  8
0
  6
CONTINUOUS
 62
     6
 10
0.0000000000009095
 20
588.99999999999886
 30
0.0
 40
45.0
  0
CIRCLE
  5
8FB77
  8
0
  6
CONTINUOUS
 62
     6
 10
2650.0
 20
588.99999999999886
 30
0.0
 40
45.0
  0
LINE
  5
8FB78
  8
0
  6
CONTINUOUS
 62
     7
 10
2691.8658599999999
 20
572.49999999999943
 30
0.0
 11
2875.0000000000018
 21
572.49999999999943
 31
0.0
  0
LINE
  5
8FB79
  8
0
  6
CONTINUOUS
 62
     7
 10
41.865860000003451
 20
572.49999999999886
 30
0.0
 11
2608.134140000001
 21
572.49999999999943
 31
0.0
  0
LINE
  5
8FB7A
  8
0
  6
BYBLOCK
 10
2875.0000000000018
 20
452.49999999999937
 30
0.0
 11
2875.0000000000018
 21
572.49999999999943
 31
0.0
  0
ENDSEC
  0
EOF
