  0
SECTION
  2
HEADER
  9
$ACADVER
  1
AC1009
  9
$DWGCODEPAGE
  3
ansi_1252
  9
$INSBASE
 10
0.0
 20
0.0
 30
0.0
  9
$EXTMIN
 10
-1704.711672
 20
-756.820507
 30
-0.001526
  9
$EXTMAX
 10
1704.712063
 20
756.820783
 30
0.0
  9
$LIMMIN
 10
-42000.0
 20
-29700.0
  9
$LIMMAX
 10
42000.0
 20
29700.0
  9
$ORTHOMODE
 70
     0
  9
$REGENMODE
 70
     1
  9
$FILLMODE
 70
     1
  9
$QTEXTMODE
 70
     0
  9
$MIRRTEXT
 70
     1
  9
$DRAGMODE
 70
     2
  9
$LTSCALE
 40
1.0
  9
$OSMODE
 70
    37
  9
$ATTMODE
 70
     1
  9
$TEXTSIZE
 40
0.2
  9
$TRACEWID
 40
0.05
  9
$TEXTSTYLE
  7
STANDARD
  9
$CLAYER
  8
0
  9
$CELTYPE
  6
BYBLOCK
  9
$CECOLOR
 62
   256
  9
$DIMSCALE
 40
1.0
  9
$DIMASZ
 40
0.18
  9
$DIMEXO
 40
0.0625
  9
$DIMDLI
 40
0.38
  9
$DIMRND
 40
0.0
  9
$DIMDLE
 40
0.0
  9
$DIMEXE
 40
0.18
  9
$DIMTP
 40
0.0
  9
$DIMTM
 40
0.0
  9
$DIMTXT
 40
0.18
  9
$DIMCEN
 40
0.09
  9
$DIMTSZ
 40
0.0
  9
$DIMTOL
 70
     0
  9
$DIMLIM
 70
     0
  9
$DIMTIH
 70
     1
  9
$DIMTOH
 70
     1
  9
$DIMSE1
 70
     0
  9
$DIMSE2
 70
     0
  9
$DIMTAD
 70
     0
  9
$DIMZIN
 70
     0
  9
$DIMBLK
  1

  9
$DIMASO
 70
     1
  9
$DIMSHO
 70
     1
  9
$DIMPOST
  1

  9
$DIMAPOST
  1

  9
$DIMALT
 70
     0
  9
$DIMALTD
 70
     2
  9
$DIMALTF
 40
25.4
  9
$DIMLFAC
 40
1.0
  9
$DIMTOFL
 70
     0
  9
$DIMTVP
 40
0.0
  9
$DIMTIX
 70
     0
  9
$DIMSOXD
 70
     0
  9
$DIMSAH
 70
     0
  9
$DIMBLK1
  1

  9
$DIMBLK2
  1

  9
$DIMSTYLE
  2
STANDARD
  9
$DIMCLRD
 70
     0
  9
$DIMCLRE
 70
     0
  9
$DIMCLRT
 70
     0
  9
$DIMTFAC
 40
1.0
  9
$DIMGAP
 40
0.09
  9
$LUNITS
 70
     2
  9
$LUPREC
 70
     4
  9
$SKETCHINC
 40
0.1
  9
$FILLETRAD
 40
0.5
  9
$AUNITS
 70
     0
  9
$AUPREC
 70
     0
  9
$MENU
  1
.
  9
$ELEVATION
 40
0.0
  9
$PELEVATION
 40
0.0
  9
$THICKNESS
 40
0.0
  9
$LIMCHECK
 70
     0
  9
$CHAMFERA
 40
0.5
  9
$CHAMFERB
 40
0.5
  9
$SKPOLY
 70
     0
  9
$TDCREATE
 40
2458647.322407396
  9
$TDUPDATE
 40
2458671.804057222
  9
$TDINDWG
 40
0.0122338079
  9
$TDUSRTIMER
 40
0.0122338079
  9
$USRTIMER
 70
     1
  9
$ANGBASE
 50
0.0
  9
$ANGDIR
 70
     0
  9
$PDMODE
 70
     0
  9
$PDSIZE
 40
0.0
  9
$PLINEWID
 40
0.0
  9
$COORDS
 70
     1
  9
$SPLFRAME
 70
     0
  9
$SPLINETYPE
 70
     6
  9
$SPLINESEGS
 70
     8
  9
$ATTDIA
 70
     0
  9
$ATTREQ
 70
     1
  9
$HANDLING
 70
     1
  9
$HANDSEED
  5
3C01
  9
$SURFTAB1
 70
     6
  9
$SURFTAB2
 70
     6
  9
$SURFTYPE
 70
     6
  9
$SURFU
 70
     6
  9
$SURFV
 70
     6
  9
$UCSNAME
  2

  9
$UCSORG
 10
0.0
 20
0.0
 30
0.0
  9
$UCSXDIR
 10
1.0
 20
0.0
 30
0.0
  9
$UCSYDIR
 10
0.0
 20
1.0
 30
0.0
  9
$PUCSNAME
  2

  9
$PUCSORG
 10
0.0
 20
0.0
 30
0.0
  9
$PUCSXDIR
 10
1.0
 20
0.0
 30
0.0
  9
$PUCSYDIR
 10
0.0
 20
1.0
 30
0.0
  9
$USERI1
 70
     0
  9
$USERI2
 70
     0
  9
$USERI3
 70
     0
  9
$USERI4
 70
     0
  9
$USERI5
 70
     0
  9
$USERR1
 40
0.0
  9
$USERR2
 40
0.0
  9
$USERR3
 40
0.0
  9
$USERR4
 40
0.0
  9
$USERR5
 40
0.0
  9
$WORLDVIEW
 70
     0
  9
$SHADEDGE
 70
     3
  9
$SHADEDIF
 70
    70
  9
$TILEMODE
 70
     1
  9
$MAXACTVP
 70
    64
  9
$PLIMCHECK
 70
     0
  9
$PEXTMIN
 10
1.000000E+20
 20
1.000000E+20
 30
1.000000E+20
  9
$PEXTMAX
 10
-1.000000E+20
 20
-1.000000E+20
 30
-1.000000E+20
  9
$PLIMMIN
 10
0.0
 20
0.0
  9
$PLIMMAX
 10
12.0
 20
9.0
  9
$UNITMODE
 70
     0
  9
$VISRETAIN
 70
     1
  9
$PLINEGEN
 70
     0
  9
$PSLTSCALE
 70
     0
  0
ENDSEC
  0
SECTION
  2
TABLES
  0
TABLE
  2
VPORT
 70
     1
  0
VPORT
  2
*ACTIVE
 70
     0
 10
0.0
 20
0.0
 11
1.0
 21
1.0
 12
149.842432
 22
-110.959065
 13
0.0
 23
0.0
 14
0.5
 24
0.5
 15
0.5
 25
0.5
 16
0.0
 26
0.0
 36
1.0
 17
0.0
 27
0.0
 37
0.0
 40
393.402845
 41
2.225175
 42
50.0
 43
0.0
 44
0.0
 50
0.0
 51
0.0
 71
    16
 72
   100
 73
     1
 74
     3
 75
     0
 76
     0
 77
     0
 78
     0
  0
ENDTAB
  0
TABLE
  2
LTYPE
 70
     1
  0
LTYPE
  2
CONTINUOUS
 70
     0
  3
Solid line
 72
    65
 73
     0
 40
0.0
  0
ENDTAB
  0
TABLE
  2
LAYER
 70
     1
  0
LAYER
  2
0
 70
     0
 62
     7
  6
CONTINUOUS
  0
ENDTAB
  0
TABLE
  2
STYLE
 70
     1
  0
STYLE
  2
STANDARD
 70
     0
 40
0.0
 41
1.0
 50
0.0
 71
     0
 42
0.2
  3
txt
  4

  0
ENDTAB
  0
TABLE
  2
VIEW
 70
     0
  0
ENDTAB
  0
TABLE
  2
UCS
 70
     0
  0
ENDTAB
  0
TABLE
  2
APPID
 70
    10
  0
APPID
  2
ACAD
 70
     0
  0
APPID
  2
ACADANNOTATIVE
 70
     0
  0
APPID
  2
ACAD_NAV_VCDISPLAY
 70
     0
  0
APPID
  2
ACAD_EXEMPT_FROM_CAD_STAND
 70
     0
  0
APPID
  2
ACAD_MLEADERVER
 70
     0
  0
APPID
  2
MCS_DIM1
 70
     0
  0
APPID
  2
MCSXDATA5
 70
     0
  0
APPID
  2
MCS_DOCUMENT_ID
 70
     0
  0
APPID
  2
MCS_PARAMS_DATA
 70
     0
  0
APPID
  2
MC_VERSION_DATA
 70
     0
  0
ENDTAB
  0
TABLE
  2
DIMSTYLE
 70
     1
  0
DIMSTYLE
  2
STANDARD
 70
     0
  3

  4

  5

  6

  7

 40
1.0
 41
0.18
 42
0.0625
 43
0.38
 44
0.18
 45
0.0
 46
0.0
 47
0.0
 48
0.0
140
0.18
141
0.09
142
0.0
143
25.4
144
1.0
145
0.0
146
1.0
147
0.09
 71
     0
 72
     0
 73
     1
 74
     1
 75
     0
 76
     0
 77
     0
 78
     0
170
     0
171
     2
172
     0
173
     0
174
     0
175
     0
176
     0
177
     0
178
     0
  0
ENDTAB
  0
ENDSEC
  0
SECTION
  2
BLOCKS
  0
BLOCK
  8
0
  2
$MODEL_SPACE
 70
     0
 10
0.0
 20
0.0
 30
0.0
  3
$MODEL_SPACE
  1

  0
ENDBLK
  5
399B
  8
0
  0
BLOCK
 67
     1
  8
0
  2
$PAPER_SPACE
 70
     0
 10
0.0
 20
0.0
 30
0.0
  3
$PAPER_SPACE
  1

  0
ENDBLK
  5
3999
 67
     1
  8
0
  0
ENDSEC
  0
SECTION
  2
ENTITIES
  0
LINE
  5
F26
  8
0
 10
-1487.50416
 20
755.501825
 30
0.0
 11
-1487.50416
 21
730.501825
 31
0.0
  0
LINE
  5
F27
  8
0
 10
-1699.99585
 20
755.501825
 30
0.0
 11
-1487.50416
 21
755.501825
 31
0.0
  0
LINE
  5
F2D
  8
0
 10
-1699.99585
 20
665.501825
 30
0.0
 11
-1552.50416
 21
665.501825
 31
0.0
  0
LINE
  5
F2E
  8
0
 10
-1552.50416
 20
690.501825
 30
0.0
 11
-1699.99585
 21
690.501825
 31
0.0
  0
LINE
  5
FB8
  8
0
 10
-1699.99585
 20
730.501825
 30
0.0
 11
-1479.50416
 21
730.501825
 31
0.0
  0
LINE
  5
12D8
  8
0
 10
-650.00386
 20
730.000002
 30
0.0
 11
-650.00386
 21
-730.511041
 31
0.0
  0
LINE
  5
15D7
  8
0
 10
-1552.50416
 20
730.501825
 30
0.0
 11
-1552.50416
 21
630.479813
 31
0.0
  0
LINE
  5
1AE9
  8
0
 10
650.00385
 20
630.479813
 30
0.0
 11
-650.00386
 21
630.479813
 31
0.0
  0
LINE
  5
1B74
  8
0
 10
-800.00386
 20
730.000002
 30
0.0
 11
-800.00386
 21
-730.513168
 31
0.0
  0
LINE
  5
2FBF
  8
0
 10
650.00385
 20
198.000002
 30
0.0
 11
-650.00386
 21
198.000002
 31
0.0
  0
LINE
  5
2FC0
  8
0
 10
-650.00386
 20
358.0
 30
0.0
 11
650.0
 21
358.000001
 31
0.0
  0
LINE
  5
2FD9
  8
0
 10
-1479.50416
 20
730.501825
 30
0.0
 11
1699.99584
 21
730.501825
 31
0.0
  0
LINE
  5
2FDA
  8
0
 10
-1699.99585
 20
665.501825
 30
0.0
 11
-1699.99585
 21
690.501825
 31
0.0
  0
LINE
  5
2FDB
  8
0
 10
-1699.99585
 20
730.501825
 30
0.0
 11
-1699.99585
 21
755.501825
 31
0.0
  0
LINE
  5
39F2
  8
0
 10
1487.50415
 20
755.501825
 30
0.0
 11
1487.50415
 21
730.501825
 31
0.0
  0
LINE
  5
39F3
  8
0
 10
1699.99584
 20
755.501825
 30
0.0
 11
1487.50415
 21
755.501825
 31
0.0
  0
LINE
  5
39F4
  8
0
 10
1699.99584
 20
665.501825
 30
0.0
 11
1552.50415
 21
665.501825
 31
0.0
  0
LINE
  5
39F5
  8
0
 10
1552.50415
 20
690.501825
 30
0.0
 11
1699.99584
 21
690.501825
 31
0.0
  0
LINE
  5
39F7
  8
0
 10
650.00385
 20
730.000002
 30
0.0
 11
650.00385
 21
-730.492609
 31
0.0
  0
LINE
  5
39F8
  8
0
 10
1552.50415
 20
730.501825
 30
0.0
 11
1552.50415
 21
630.479813
 31
0.0
  0
LINE
  5
39F9
  8
0
 10
800.00385
 20
630.479813
 30
0.0
 11
1552.50415
 21
630.479813
 31
0.0
  0
LINE
  5
39FA
  8
0
 10
800.00385
 20
730.000002
 30
0.0
 11
800.00385
 21
-730.490482
 31
0.0
  0
LINE
  5
39FB
  8
0
 10
1699.99584
 20
665.501825
 30
0.0
 11
1699.99584
 21
690.501825
 31
0.0
  0
LINE
  5
39FC
  8
0
 10
1699.99584
 20
730.501825
 30
0.0
 11
1699.99584
 21
755.501825
 31
0.0
  0
LINE
  5
39FD
  8
0
 10
-1552.50416
 20
630.479813
 30
0.0
 11
-800.00386
 21
630.479813
 31
0.0
  0
LINE
  5
39FE
  8
0
 10
-1487.493448
 20
-755.522915
 30
0.0
 11
-1487.493803
 21
-730.522915
 31
0.0
  0
LINE
  5
39FF
  8
0
 10
-1699.985138
 20
-755.525928
 30
0.0
 11
-1487.493448
 21
-755.522915
 31
0.0
  0
LINE
  5
3A00
  8
0
 10
-1699.986414
 20
-665.525928
 30
0.0
 11
-1552.494724
 21
-665.523837
 31
0.0
  0
LINE
  5
3A01
  8
0
 10
-1552.49437
 20
-690.523837
 30
0.0
 11
-1699.98606
 21
-690.525928
 31
0.0
  0
LINE
  5
3A02
  8
0
 10
-1699.985492
 20
-730.525928
 30
0.0
 11
-1479.493803
 21
-730.522802
 31
0.0
  0
LINE
  5
3A03
  8
0
 10
-1552.493803
 20
-730.523837
 30
0.0
 11
-1552.495221
 21
-630.501825
 31
0.0
  0
LINE
  5
3A04
  8
0
 10
650.012789
 20
-630.470597
 30
0.0
 11
-649.994921
 21
-630.489029
 31
0.0
  0
LINE
  5
3A05
  8
0
 10
650.006657
 20
-197.990786
 30
0.0
 11
-650.001053
 21
-198.009218
 31
0.0
  0
LINE
  5
3A06
  8
0
 10
-649.998784
 20
-358.009216
 30
0.0
 11
650.005076
 21
-357.990785
 31
0.0
  0
LINE
  5
3A07
  8
0
 10
-1479.493803
 20
-730.522802
 30
0.0
 11
1700.006197
 21
-730.477722
 31
0.0
  0
LINE
  5
3A08
  8
0
 10
-1699.986414
 20
-665.525928
 30
0.0
 11
-1699.98606
 21
-690.525928
 31
0.0
  0
LINE
  5
3A09
  8
0
 10
-1699.985492
 20
-730.525928
 30
0.0
 11
-1699.985138
 21
-755.525928
 31
0.0
  0
LINE
  5
3A0A
  8
0
 10
1487.514862
 20
-755.480735
 30
0.0
 11
1487.514507
 21
-730.480735
 31
0.0
  0
LINE
  5
3A0B
  8
0
 10
1700.006552
 20
-755.477722
 30
0.0
 11
1487.514862
 21
-755.480735
 31
0.0
  0
LINE
  5
3A0C
  8
0
 10
1700.005276
 20
-665.477722
 30
0.0
 11
1552.513586
 21
-665.479813
 31
0.0
  0
LINE
  5
3A0D
  8
0
 10
1552.51394
 20
-690.479813
 30
0.0
 11
1700.00563
 21
-690.477722
 31
0.0
  0
LINE
  5
3A0E
  8
0
 10
1552.514507
 20
-730.479813
 30
0.0
 11
1552.513089
 21
-630.457801
 31
0.0
  0
LINE
  5
3A0F
  8
0
 10
800.012789
 20
-630.46847
 30
0.0
 11
1552.513089
 21
-630.457801
 31
0.0
  0
LINE
  5
3A10
  8
0
 10
1700.005276
 20
-665.477722
 30
0.0
 11
1700.00563
 21
-690.477722
 31
0.0
  0
LINE
  5
3A11
  8
0
 10
1700.006197
 20
-730.477722
 30
0.0
 11
1700.006552
 21
-755.477722
 31
0.0
  0
LINE
  5
3A12
  8
0
 10
-1552.495221
 20
-630.501825
 30
0.0
 11
-799.994921
 21
-630.491156
 31
0.0
  0
LINE
  5
3AEA
  8
0
  6
BYBLOCK
 10
0.0
 20
0.0
 30
0.0
 11
0.0
 21
0.0
 31
0.0
  0
LINE
  5
3B6F
  8
0
  6
BYBLOCK
 10
0.0
 20
0.0
 30
0.0
 11
25.0
 21
25.0
 31
0.0
  0
LINE
  5
3B72
  8
0
  6
BYBLOCK
 10
0.0
 20
0.0
 30
0.0
 11
25.0
 21
-25.0
 31
0.0
  0
LINE
  5
3B73
  8
0
  6
BYBLOCK
 10
0.0
 20
0.0
 30
0.0
 11
-25.0
 21
25.0
 31
0.0
  0
LINE
  5
3B74
  8
0
  6
BYBLOCK
 10
0.0
 20
0.0
 30
0.0
 11
-25.0
 21
-25.0
 31
0.0
  0
CIRCLE
  5
3B75
  8
0
  6
BYBLOCK
 10
0.0
 20
0.0
 30
0.0
 40
20.0
  0
ENDSEC
  0
EOF
