  0
SECTION
  2
HEADER
  9
$ACADVER
  1
AC1009
  9
$DWGCODEPAGE
  3
ansi_1252
  9
$INSBASE
 10
0.0
 20
0.0
 30
0.0
  9
$EXTMIN
 10
-43547.057545
 20
-20246.085712
 30
-0.001526
  9
$EXTMAX
 10
23497.90577
 20
15334.58857
 30
0.0
  9
$LIMMIN
 10
-105000.0
 20
-74250.0
  9
$LIMMAX
 10
105000.0
 20
74250.0
  9
$ORTHOMODE
 70
     1
  9
$REGENMODE
 70
     1
  9
$FILLMODE
 70
     1
  9
$QTEXTMODE
 70
     0
  9
$MIRRTEXT
 70
     1
  9
$DRAGMODE
 70
     2
  9
$LTSCALE
 40
1.0
  9
$OSMODE
 70
    37
  9
$ATTMODE
 70
     1
  9
$TEXTSIZE
 40
0.2
  9
$TRACEWID
 40
0.05
  9
$TEXTSTYLE
  7
STANDARD
  9
$CLAYER
  8
0
  9
$CELTYPE
  6
BYLAYER
  9
$CECOLOR
 62
     7
  9
$DIMSCALE
 40
1.0
  9
$DIMASZ
 40
0.18
  9
$DIMEXO
 40
0.0625
  9
$DIMDLI
 40
0.38
  9
$DIMRND
 40
0.0
  9
$DIMDLE
 40
0.0
  9
$DIMEXE
 40
0.18
  9
$DIMTP
 40
0.0
  9
$DIMTM
 40
0.0
  9
$DIMTXT
 40
0.18
  9
$DIMCEN
 40
0.09
  9
$DIMTSZ
 40
0.0
  9
$DIMTOL
 70
     0
  9
$DIMLIM
 70
     0
  9
$DIMTIH
 70
     1
  9
$DIMTOH
 70
     1
  9
$DIMSE1
 70
     0
  9
$DIMSE2
 70
     0
  9
$DIMTAD
 70
     0
  9
$DIMZIN
 70
     0
  9
$DIMBLK
  1

  9
$DIMASO
 70
     1
  9
$DIMSHO
 70
     1
  9
$DIMPOST
  1

  9
$DIMAPOST
  1

  9
$DIMALT
 70
     0
  9
$DIMALTD
 70
     2
  9
$DIMALTF
 40
25.4
  9
$DIMLFAC
 40
1.0
  9
$DIMTOFL
 70
     0
  9
$DIMTVP
 40
0.0
  9
$DIMTIX
 70
     0
  9
$DIMSOXD
 70
     0
  9
$DIMSAH
 70
     0
  9
$DIMBLK1
  1

  9
$DIMBLK2
  1

  9
$DIMSTYLE
  2
STANDARD
  9
$DIMCLRD
 70
    18
  9
$DIMCLRE
 70
    18
  9
$DIMCLRT
 70
    18
  9
$DIMTFAC
 40
1.0
  9
$DIMGAP
 40
0.09
  9
$LUNITS
 70
     2
  9
$LUPREC
 70
     4
  9
$SKETCHINC
 40
0.1
  9
$FILLETRAD
 40
0.5
  9
$AUNITS
 70
     0
  9
$AUPREC
 70
     0
  9
$MENU
  1
.
  9
$ELEVATION
 40
0.0
  9
$PELEVATION
 40
0.0
  9
$THICKNESS
 40
0.0
  9
$LIMCHECK
 70
     0
  9
$CHAMFERA
 40
0.5
  9
$CHAMFERB
 40
0.5
  9
$SKPOLY
 70
     0
  9
$TDCREATE
 40
2458647.405659711
  9
$TDUPDATE
 40
2458671.825465891
  9
$TDINDWG
 40
0.0286342593
  9
$TDUSRTIMER
 40
0.0286342593
  9
$USRTIMER
 70
     1
  9
$ANGBASE
 50
0.0
  9
$ANGDIR
 70
     0
  9
$PDMODE
 70
     0
  9
$PDSIZE
 40
0.0
  9
$PLINEWID
 40
0.0
  9
$COORDS
 70
     1
  9
$SPLFRAME
 70
     0
  9
$SPLINETYPE
 70
     6
  9
$SPLINESEGS
 70
     8
  9
$ATTDIA
 70
     0
  9
$ATTREQ
 70
     1
  9
$HANDLING
 70
     1
  9
$HANDSEED
  5
7071389
  9
$SURFTAB1
 70
     6
  9
$SURFTAB2
 70
     6
  9
$SURFTYPE
 70
     6
  9
$SURFU
 70
     6
  9
$SURFV
 70
     6
  9
$UCSNAME
  2

  9
$UCSORG
 10
0.0
 20
0.0
 30
0.0
  9
$UCSXDIR
 10
1.0
 20
0.0
 30
0.0
  9
$UCSYDIR
 10
0.0
 20
1.0
 30
0.0
  9
$PUCSNAME
  2

  9
$PUCSORG
 10
0.0
 20
0.0
 30
0.0
  9
$PUCSXDIR
 10
1.0
 20
0.0
 30
0.0
  9
$PUCSYDIR
 10
0.0
 20
1.0
 30
0.0
  9
$USERI1
 70
     0
  9
$USERI2
 70
     0
  9
$USERI3
 70
     0
  9
$USERI4
 70
     0
  9
$USERI5
 70
     0
  9
$USERR1
 40
0.0
  9
$USERR2
 40
0.0
  9
$USERR3
 40
0.0
  9
$USERR4
 40
0.0
  9
$USERR5
 40
0.0
  9
$WORLDVIEW
 70
     1
  9
$SHADEDGE
 70
     3
  9
$SHADEDIF
 70
    70
  9
$TILEMODE
 70
     1
  9
$MAXACTVP
 70
    64
  9
$PLIMCHECK
 70
     0
  9
$PEXTMIN
 10
1.000000E+20
 20
1.000000E+20
 30
1.000000E+20
  9
$PEXTMAX
 10
-1.000000E+20
 20
-1.000000E+20
 30
-1.000000E+20
  9
$PLIMMIN
 10
-0.25
 20
-0.25
  9
$PLIMMAX
 10
10.75
 20
8.25
  9
$UNITMODE
 70
     0
  9
$VISRETAIN
 70
     1
  9
$PLINEGEN
 70
     0
  9
$PSLTSCALE
 70
     0
  0
ENDSEC
  0
SECTION
  2
TABLES
  0
TABLE
  2
VPORT
 70
     1
  0
VPORT
  2
*ACTIVE
 70
     0
 10
0.0
 20
0.0
 11
1.0
 21
1.0
 12
3469.010301
 22
1114.489202
 13
0.0
 23
0.0
 14
0.5
 24
0.5
 15
0.5
 25
0.5
 16
0.0
 26
0.0
 36
1.0
 17
0.0
 27
0.0
 37
0.0
 40
6964.491855
 41
2.225175
 42
50.0
 43
0.0
 44
0.0
 50
0.0
 51
0.0
 71
    16
 72
   100
 73
     1
 74
     3
 75
     0
 76
     0
 77
     0
 78
     0
  0
ENDTAB
  0
TABLE
  2
LTYPE
 70
     1
  0
LTYPE
  2
CONTINUOUS
 70
     0
  3
Solid line
 72
    65
 73
     0
 40
0.0
  0
ENDTAB
  0
TABLE
  2
LAYER
 70
     1
  0
LAYER
  2
0
 70
     0
 62
     7
  6
CONTINUOUS
  0
ENDTAB
  0
TABLE
  2
STYLE
 70
     1
  0
STYLE
  2
STANDARD
 70
     0
 40
0.0
 41
1.0
 50
0.0
 71
     0
 42
0.2
  3
txt
  4

  0
ENDTAB
  0
TABLE
  2
VIEW
 70
     0
  0
ENDTAB
  0
TABLE
  2
UCS
 70
     0
  0
ENDTAB
  0
TABLE
  2
APPID
 70
    10
  0
APPID
  2
ACAD
 70
     0
  0
APPID
  2
QCAD
 70
     0
  0
APPID
  2
ACAD_EXEMPT_FROM_CAD_STAND
 70
     0
  0
APPID
  2
ACAD_NAV_VCDISPLAY
 70
     0
  0
APPID
  2
ACAD_MLEADERVER
 70
     0
  0
APPID
  2
MCS_DIM1
 70
     0
  0
APPID
  2
MCSXDATA5
 70
     0
  0
APPID
  2
MCS_DOCUMENT_ID
 70
     0
  0
APPID
  2
MCS_PARAMS_DATA
 70
     0
  0
APPID
  2
MC_VERSION_DATA
 70
     0
  0
ENDTAB
  0
TABLE
  2
DIMSTYLE
 70
     1
  0
DIMSTYLE
  2
STANDARD
 70
     0
  3

  4

  5

  6

  7

 40
1.0
 41
0.18
 42
0.0625
 43
0.38
 44
0.18
 45
0.0
 46
0.0
 47
0.0
 48
0.0
140
0.18
141
0.09
142
0.0
143
25.4
144
1.0
145
0.0
146
1.0
147
0.09
 71
     0
 72
     0
 73
     1
 74
     1
 75
     0
 76
     0
 77
     0
 78
     0
170
     0
171
     2
172
     0
173
     0
174
     0
175
     0
176
     0
177
     0
178
     0
  0
ENDTAB
  0
ENDSEC
  0
SECTION
  2
BLOCKS
  0
BLOCK
  8
0
  2
$MODEL_SPACE
 70
     0
 10
0.0
 20
0.0
 30
0.0
  3
$MODEL_SPACE
  1

  0
ENDBLK
  5
70CEA
  8
0
  0
BLOCK
 67
     1
  8
0
  2
$PAPER_SPACE
 70
     0
 10
0.0
 20
0.0
 30
0.0
  3
$PAPER_SPACE
  1

  0
ENDBLK
  5
70CE6
 67
     1
  8
0
  0
ENDSEC
  0
SECTION
  2
ENTITIES
  0
LINE
  5
F31
  8
0
 10
14530.70149
 20
-12348.869252
 30
0.0
 11
13509.49175
 21
-12348.869252
 31
0.0
  0
LINE
  5
F33
  8
0
 10
13509.49175
 20
-10188.617872
 30
0.0
 11
16494.56638
 21
-10188.617872
 31
0.0
  0
LINE
  5
F35
  8
0
 10
16494.56638
 20
-8460.416772
 30
0.0
 11
13509.49175
 21
-8460.416772
 31
0.0
  0
LINE
  5
F37
  8
0
 10
1336.76282
 20
-15785.968962
 30
0.0
 11
14019.21855
 21
-15785.968962
 31
0.0
  0
LINE
  5
F3A
  8
0
 10
17579.54376
 20
-16190.113982
 30
0.0
 11
17579.54376
 21
-13842.223842
 31
0.0
  0
LINE
  5
F3C
  8
0
 10
13653.56353
 20
-13842.223842
 30
0.0
 11
13653.56353
 21
-14842.963902
 31
0.0
  0
LINE
  5
26319
  8
0
 10
16960.62333
 20
2218.872845
 30
0.0
 11
16960.62333
 21
1018.872845
 31
0.0
  0
LINE
  5
36479
  8
0
 10
-1254.94457
 20
10704.525
 30
0.0
 11
-1254.9436
 21
10904.525
 31
0.0
  0
LINE
  5
36523
  8
0
 10
18119.0
 20
-728.09393
 30
0.0
 11
18118.99903
 21
-928.09393
 31
0.0
  0
LINE
  5
36526
  8
0
 10
18119.0
 20
-728.09393
 30
0.0
 11
10757.0
 21
-728.058237
 31
0.0
  0
LINE
  5
3655F
  8
0
 10
10756.99903
 20
-928.058237
 30
0.0
 11
-1255.00097
 21
-928.0
 31
0.0
  0
LINE
  5
36560
  8
0
 10
10757.0
 20
-728.058237
 30
0.0
 11
-1255.0
 21
-728.0
 31
0.0
  0
LINE
  5
38BF8
  8
0
 10
13588.04635
 20
-14663.973892
 30
0.0
 11
13588.04635
 21
-13134.415202
 31
0.0
  0
LINE
  5
38BF9
  8
0
 10
13588.04635
 20
-13134.415202
 30
0.0
 11
14530.70149
 21
-13134.415202
 31
0.0
  0
LINE
  5
38BFA
  8
0
 10
14530.70149
 20
-13134.415202
 30
0.0
 11
14530.70149
 21
-12348.869252
 31
0.0
  0
LINE
  5
38BFC
  8
0
 10
13509.49175
 20
-12348.869252
 30
0.0
 11
13509.49175
 21
-10188.617872
 31
0.0
  0
LINE
  5
38BFE
  8
0
 10
16494.56638
 20
-10188.617872
 30
0.0
 11
16494.56638
 21
-8460.416772
 31
0.0
  0
LINE
  5
38C00
  8
0
 10
13509.49175
 20
-8460.416772
 30
0.0
 11
13509.49175
 21
-5396.787554
 31
0.0
  0
LINE
  5
38C02
  8
0
 10
14019.21855
 20
-15785.968962
 30
0.0
 11
14019.21855
 21
-16190.113982
 31
0.0
  0
LINE
  5
38C03
  8
0
 10
14019.21855
 20
-16190.113982
 30
0.0
 11
17579.54376
 21
-16190.113982
 31
0.0
  0
LINE
  5
38C05
  8
0
 10
17579.54376
 20
-13842.223842
 30
0.0
 11
13653.56353
 21
-13842.223842
 31
0.0
  0
LINE
  5
38C07
  8
0
 10
13653.56353
 20
-14842.963902
 30
0.0
 11
1336.76282
 21
-14842.963902
 31
0.0
  0
LINE
  5
38C08
  8
0
 10
-241.32727
 20
-14663.973892
 30
0.0
 11
13588.04635
 21
-14663.973892
 31
0.0
  0
LINE
  5
38C09
  8
0
 10
13509.49175
 20
-5396.787554
 30
0.0
 11
-241.32727
 21
-5396.787554
 31
0.0
  0
LINE
  5
5DFDE
  8
0
 10
7745.42333
 20
2218.872845
 30
0.0
 11
7745.42333
 21
1018.872845
 31
0.0
  0
LINE
  5
6E1EE
  8
0
 10
18118.99903
 20
-928.09393
 30
0.0
 11
10756.99903
 21
-928.058237
 31
0.0
  0
LINE
  5
6E22B
  8
0
 10
-1255.0
 20
-728.0
 30
0.0
 11
-1255.00097
 21
-928.0
 31
0.0
  0
LINE
  5
7073B
  8
0
 10
-1777.46393
 20
10143.000451
 30
0.0
 11
-1642.46393
 21
10143.000451
 31
0.0
  0
LINE
  5
70880
  8
0
 10
-800.71351
 20
10143.000451
 30
0.0
 11
-665.71351
 21
10143.000451
 31
0.0
  0
LINE
  5
7088A
  8
0
 10
176.03691
 20
10143.000451
 30
0.0
 11
311.03691
 21
10143.000451
 31
0.0
  0
LINE
  5
70894
  8
0
 10
1152.78733
 20
10143.000451
 30
0.0
 11
1287.78733
 21
10143.000451
 31
0.0
  0
LINE
  5
7089E
  8
0
 10
2129.53775
 20
10143.000451
 30
0.0
 11
2264.53775
 21
10143.000451
 31
0.0
  0
LINE
  5
708A8
  8
0
 10
3106.28817
 20
10143.000451
 30
0.0
 11
3241.28817
 21
10143.000451
 31
0.0
  0
LINE
  5
708B2
  8
0
 10
4083.03859
 20
10143.000451
 30
0.0
 11
4218.03859
 21
10143.000451
 31
0.0
  0
LINE
  5
708C6
  8
0
 10
6036.53943
 20
10143.000451
 30
0.0
 11
6171.53943
 21
10143.000451
 31
0.0
  0
LINE
  5
708D0
  8
0
 10
7013.28985
 20
10143.000451
 30
0.0
 11
7148.28985
 21
10143.000451
 31
0.0
  0
LINE
  5
708DA
  8
0
 10
7990.04027
 20
10143.000451
 30
0.0
 11
8125.04027
 21
10143.000451
 31
0.0
  0
LINE
  5
708E4
  8
0
 10
8966.79069
 20
10143.000451
 30
0.0
 11
9101.79069
 21
10143.000451
 31
0.0
  0
LINE
  5
708EE
  8
0
 10
9943.54111
 20
10143.000451
 30
0.0
 11
10078.54111
 21
10143.000451
 31
0.0
  0
LINE
  5
708F8
  8
0
 10
10920.29153
 20
10143.000451
 30
0.0
 11
11055.29153
 21
10143.000451
 31
0.0
  0
LINE
  5
70902
  8
0
 10
11897.04195
 20
10143.000451
 30
0.0
 11
12032.04195
 21
10143.000451
 31
0.0
  0
LINE
  5
709AC
  8
0
 10
-1784.46393
 20
8517.000451
 30
0.0
 11
-1649.46393
 21
8517.000451
 31
0.0
  0
LINE
  5
709AD
  8
0
 10
-807.71351
 20
8517.000451
 30
0.0
 11
-672.71351
 21
8517.000451
 31
0.0
  0
LINE
  5
709AE
  8
0
 10
169.03691
 20
8517.000451
 30
0.0
 11
304.03691
 21
8517.000451
 31
0.0
  0
LINE
  5
709AF
  8
0
 10
1145.78733
 20
8517.000451
 30
0.0
 11
1280.78733
 21
8517.000451
 31
0.0
  0
LINE
  5
709B0
  8
0
 10
2122.53775
 20
8517.000451
 30
0.0
 11
2257.53775
 21
8517.000451
 31
0.0
  0
LINE
  5
709B1
  8
0
 10
3099.28817
 20
8517.000451
 30
0.0
 11
3234.28817
 21
8517.000451
 31
0.0
  0
LINE
  5
709B2
  8
0
 10
4076.03859
 20
8517.000451
 30
0.0
 11
4211.03859
 21
8517.000451
 31
0.0
  0
LINE
  5
709B3
  8
0
 10
6029.53943
 20
8517.000451
 30
0.0
 11
6164.53943
 21
8517.000451
 31
0.0
  0
LINE
  5
709B4
  8
0
 10
7006.28985
 20
8517.000451
 30
0.0
 11
7141.28985
 21
8517.000451
 31
0.0
  0
LINE
  5
709B5
  8
0
 10
7983.04027
 20
8517.000451
 30
0.0
 11
8118.04027
 21
8517.000451
 31
0.0
  0
LINE
  5
709B6
  8
0
 10
8959.79069
 20
8517.000451
 30
0.0
 11
9094.79069
 21
8517.000451
 31
0.0
  0
LINE
  5
709B7
  8
0
 10
9936.54111
 20
8517.000451
 30
0.0
 11
10071.54111
 21
8517.000451
 31
0.0
  0
LINE
  5
709B8
  8
0
 10
10913.29153
 20
8517.000451
 30
0.0
 11
11048.29153
 21
8517.000451
 31
0.0
  0
LINE
  5
709B9
  8
0
 10
11890.04195
 20
8517.000451
 30
0.0
 11
12025.04195
 21
8517.000451
 31
0.0
  0
LINE
  5
7073C
  8
0
 10
-1642.46393
 20
10143.000451
 30
0.0
 11
-1642.46393
 21
10077.000451
 31
0.0
  0
LINE
  5
70881
  8
0
 10
-665.71351
 20
10143.000451
 30
0.0
 11
-665.71351
 21
10077.000451
 31
0.0
  0
LINE
  5
7088B
  8
0
 10
311.03691
 20
10143.000451
 30
0.0
 11
311.03691
 21
10077.000451
 31
0.0
  0
LINE
  5
70895
  8
0
 10
1287.78733
 20
10143.000451
 30
0.0
 11
1287.78733
 21
10077.000451
 31
0.0
  0
LINE
  5
7089F
  8
0
 10
2264.53775
 20
10143.000451
 30
0.0
 11
2264.53775
 21
10077.000451
 31
0.0
  0
LINE
  5
708A9
  8
0
 10
3241.28817
 20
10143.000451
 30
0.0
 11
3241.28817
 21
10077.000451
 31
0.0
  0
LINE
  5
708B3
  8
0
 10
4218.03859
 20
10143.000451
 30
0.0
 11
4218.03859
 21
10077.000451
 31
0.0
  0
LINE
  5
708C7
  8
0
 10
6171.53943
 20
10143.000451
 30
0.0
 11
6171.53943
 21
10077.000451
 31
0.0
  0
LINE
  5
708D1
  8
0
 10
7148.28985
 20
10143.000451
 30
0.0
 11
7148.28985
 21
10077.000451
 31
0.0
  0
LINE
  5
708DB
  8
0
 10
8125.04027
 20
10143.000451
 30
0.0
 11
8125.04027
 21
10077.000451
 31
0.0
  0
LINE
  5
708E5
  8
0
 10
9101.79069
 20
10143.000451
 30
0.0
 11
9101.79069
 21
10077.000451
 31
0.0
  0
LINE
  5
708EF
  8
0
 10
10078.54111
 20
10143.000451
 30
0.0
 11
10078.54111
 21
10077.000451
 31
0.0
  0
LINE
  5
708F9
  8
0
 10
11055.29153
 20
10143.000451
 30
0.0
 11
11055.29153
 21
10077.000451
 31
0.0
  0
LINE
  5
70903
  8
0
 10
12032.04195
 20
10143.000451
 30
0.0
 11
12032.04195
 21
10077.000451
 31
0.0
  0
LINE
  5
709BA
  8
0
 10
-1649.46393
 20
8517.000451
 30
0.0
 11
-1649.46393
 21
8451.000451
 31
0.0
  0
LINE
  5
709BB
  8
0
 10
-672.71351
 20
8517.000451
 30
0.0
 11
-672.71351
 21
8451.000451
 31
0.0
  0
LINE
  5
709BC
  8
0
 10
304.03691
 20
8517.000451
 30
0.0
 11
304.03691
 21
8451.000451
 31
0.0
  0
LINE
  5
709BD
  8
0
 10
1280.78733
 20
8517.000451
 30
0.0
 11
1280.78733
 21
8451.000451
 31
0.0
  0
LINE
  5
709BE
  8
0
 10
2257.53775
 20
8517.000451
 30
0.0
 11
2257.53775
 21
8451.000451
 31
0.0
  0
LINE
  5
709BF
  8
0
 10
3234.28817
 20
8517.000451
 30
0.0
 11
3234.28817
 21
8451.000451
 31
0.0
  0
LINE
  5
709C0
  8
0
 10
4211.03859
 20
8517.000451
 30
0.0
 11
4211.03859
 21
8451.000451
 31
0.0
  0
LINE
  5
709C1
  8
0
 10
6164.53943
 20
8517.000451
 30
0.0
 11
6164.53943
 21
8451.000451
 31
0.0
  0
LINE
  5
709C2
  8
0
 10
7141.28985
 20
8517.000451
 30
0.0
 11
7141.28985
 21
8451.000451
 31
0.0
  0
LINE
  5
709C3
  8
0
 10
8118.04027
 20
8517.000451
 30
0.0
 11
8118.04027
 21
8451.000451
 31
0.0
  0
LINE
  5
709C4
  8
0
 10
9094.79069
 20
8517.000451
 30
0.0
 11
9094.79069
 21
8451.000451
 31
0.0
  0
LINE
  5
709C5
  8
0
 10
10071.54111
 20
8517.000451
 30
0.0
 11
10071.54111
 21
8451.000451
 31
0.0
  0
LINE
  5
709C6
  8
0
 10
11048.29153
 20
8517.000451
 30
0.0
 11
11048.29153
 21
8451.000451
 31
0.0
  0
LINE
  5
709C7
  8
0
 10
12025.04195
 20
8517.000451
 30
0.0
 11
12025.04195
 21
8451.000451
 31
0.0
  0
LINE
  5
7073D
  8
0
 10
-1642.46393
 20
10077.000451
 30
0.0
 11
-1777.46393
 21
10077.000451
 31
0.0
  0
LINE
  5
70882
  8
0
 10
-665.71351
 20
10077.000451
 30
0.0
 11
-800.71351
 21
10077.000451
 31
0.0
  0
LINE
  5
7088C
  8
0
 10
311.03691
 20
10077.000451
 30
0.0
 11
176.03691
 21
10077.000451
 31
0.0
  0
LINE
  5
70896
  8
0
 10
1287.78733
 20
10077.000451
 30
0.0
 11
1152.78733
 21
10077.000451
 31
0.0
  0
LINE
  5
708A0
  8
0
 10
2264.53775
 20
10077.000451
 30
0.0
 11
2129.53775
 21
10077.000451
 31
0.0
  0
LINE
  5
708AA
  8
0
 10
3241.28817
 20
10077.000451
 30
0.0
 11
3106.28817
 21
10077.000451
 31
0.0
  0
LINE
  5
708B4
  8
0
 10
4218.03859
 20
10077.000451
 30
0.0
 11
4083.03859
 21
10077.000451
 31
0.0
  0
LINE
  5
708C8
  8
0
 10
6171.53943
 20
10077.000451
 30
0.0
 11
6036.53943
 21
10077.000451
 31
0.0
  0
LINE
  5
708D2
  8
0
 10
7148.28985
 20
10077.000451
 30
0.0
 11
7013.28985
 21
10077.000451
 31
0.0
  0
LINE
  5
708DC
  8
0
 10
8125.04027
 20
10077.000451
 30
0.0
 11
7990.04027
 21
10077.000451
 31
0.0
  0
LINE
  5
708E6
  8
0
 10
9101.79069
 20
10077.000451
 30
0.0
 11
8966.79069
 21
10077.000451
 31
0.0
  0
LINE
  5
708F0
  8
0
 10
10078.54111
 20
10077.000451
 30
0.0
 11
9943.54111
 21
10077.000451
 31
0.0
  0
LINE
  5
708FA
  8
0
 10
11055.29153
 20
10077.000451
 30
0.0
 11
10920.29153
 21
10077.000451
 31
0.0
  0
LINE
  5
70904
  8
0
 10
12032.04195
 20
10077.000451
 30
0.0
 11
11897.04195
 21
10077.000451
 31
0.0
  0
LINE
  5
709C8
  8
0
 10
-1649.46393
 20
8451.000451
 30
0.0
 11
-1784.46393
 21
8451.000451
 31
0.0
  0
LINE
  5
709C9
  8
0
 10
-672.71351
 20
8451.000451
 30
0.0
 11
-807.71351
 21
8451.000451
 31
0.0
  0
LINE
  5
709CA
  8
0
 10
304.03691
 20
8451.000451
 30
0.0
 11
169.03691
 21
8451.000451
 31
0.0
  0
LINE
  5
709CB
  8
0
 10
1280.78733
 20
8451.000451
 30
0.0
 11
1145.78733
 21
8451.000451
 31
0.0
  0
LINE
  5
709CC
  8
0
 10
2257.53775
 20
8451.000451
 30
0.0
 11
2122.53775
 21
8451.000451
 31
0.0
  0
LINE
  5
709CD
  8
0
 10
3234.28817
 20
8451.000451
 30
0.0
 11
3099.28817
 21
8451.000451
 31
0.0
  0
LINE
  5
709CE
  8
0
 10
4211.03859
 20
8451.000451
 30
0.0
 11
4076.03859
 21
8451.000451
 31
0.0
  0
LINE
  5
709CF
  8
0
 10
6164.53943
 20
8451.000451
 30
0.0
 11
6029.53943
 21
8451.000451
 31
0.0
  0
LINE
  5
709D0
  8
0
 10
7141.28985
 20
8451.000451
 30
0.0
 11
7006.28985
 21
8451.000451
 31
0.0
  0
LINE
  5
709D1
  8
0
 10
8118.04027
 20
8451.000451
 30
0.0
 11
7983.04027
 21
8451.000451
 31
0.0
  0
LINE
  5
709D2
  8
0
 10
9094.79069
 20
8451.000451
 30
0.0
 11
8959.79069
 21
8451.000451
 31
0.0
  0
LINE
  5
709D3
  8
0
 10
10071.54111
 20
8451.000451
 30
0.0
 11
9936.54111
 21
8451.000451
 31
0.0
  0
LINE
  5
709D4
  8
0
 10
11048.29153
 20
8451.000451
 30
0.0
 11
10913.29153
 21
8451.000451
 31
0.0
  0
LINE
  5
709D5
  8
0
 10
12025.04195
 20
8451.000451
 30
0.0
 11
11890.04195
 21
8451.000451
 31
0.0
  0
LINE
  5
7073E
  8
0
 10
-1777.46393
 20
10077.000451
 30
0.0
 11
-1777.46393
 21
10143.000451
 31
0.0
  0
LINE
  5
70883
  8
0
 10
-800.71351
 20
10077.000451
 30
0.0
 11
-800.71351
 21
10143.000451
 31
0.0
  0
LINE
  5
7088D
  8
0
 10
176.03691
 20
10077.000451
 30
0.0
 11
176.03691
 21
10143.000451
 31
0.0
  0
LINE
  5
70897
  8
0
 10
1152.78733
 20
10077.000451
 30
0.0
 11
1152.78733
 21
10143.000451
 31
0.0
  0
LINE
  5
708A1
  8
0
 10
2129.53775
 20
10077.000451
 30
0.0
 11
2129.53775
 21
10143.000451
 31
0.0
  0
LINE
  5
708AB
  8
0
 10
3106.28817
 20
10077.000451
 30
0.0
 11
3106.28817
 21
10143.000451
 31
0.0
  0
LINE
  5
708B5
  8
0
 10
4083.03859
 20
10077.000451
 30
0.0
 11
4083.03859
 21
10143.000451
 31
0.0
  0
LINE
  5
708C9
  8
0
 10
6036.53943
 20
10077.000451
 30
0.0
 11
6036.53943
 21
10143.000451
 31
0.0
  0
LINE
  5
708D3
  8
0
 10
7013.28985
 20
10077.000451
 30
0.0
 11
7013.28985
 21
10143.000451
 31
0.0
  0
LINE
  5
708DD
  8
0
 10
7990.04027
 20
10077.000451
 30
0.0
 11
7990.04027
 21
10143.000451
 31
0.0
  0
LINE
  5
708E7
  8
0
 10
8966.79069
 20
10077.000451
 30
0.0
 11
8966.79069
 21
10143.000451
 31
0.0
  0
LINE
  5
708F1
  8
0
 10
9943.54111
 20
10077.000451
 30
0.0
 11
9943.54111
 21
10143.000451
 31
0.0
  0
LINE
  5
708FB
  8
0
 10
10920.29153
 20
10077.000451
 30
0.0
 11
10920.29153
 21
10143.000451
 31
0.0
  0
LINE
  5
70905
  8
0
 10
11897.04195
 20
10077.000451
 30
0.0
 11
11897.04195
 21
10143.000451
 31
0.0
  0
LINE
  5
709D6
  8
0
 10
-1784.46393
 20
8451.000451
 30
0.0
 11
-1784.46393
 21
8517.000451
 31
0.0
  0
LINE
  5
709D7
  8
0
 10
-807.71351
 20
8451.000451
 30
0.0
 11
-807.71351
 21
8517.000451
 31
0.0
  0
LINE
  5
709D8
  8
0
 10
169.03691
 20
8451.000451
 30
0.0
 11
169.03691
 21
8517.000451
 31
0.0
  0
LINE
  5
709D9
  8
0
 10
1145.78733
 20
8451.000451
 30
0.0
 11
1145.78733
 21
8517.000451
 31
0.0
  0
LINE
  5
709DA
  8
0
 10
2122.53775
 20
8451.000451
 30
0.0
 11
2122.53775
 21
8517.000451
 31
0.0
  0
LINE
  5
709DB
  8
0
 10
3099.28817
 20
8451.000451
 30
0.0
 11
3099.28817
 21
8517.000451
 31
0.0
  0
LINE
  5
709DC
  8
0
 10
4076.03859
 20
8451.000451
 30
0.0
 11
4076.03859
 21
8517.000451
 31
0.0
  0
LINE
  5
709DD
  8
0
 10
6029.53943
 20
8451.000451
 30
0.0
 11
6029.53943
 21
8517.000451
 31
0.0
  0
LINE
  5
709DE
  8
0
 10
7006.28985
 20
8451.000451
 30
0.0
 11
7006.28985
 21
8517.000451
 31
0.0
  0
LINE
  5
709DF
  8
0
 10
7983.04027
 20
8451.000451
 30
0.0
 11
7983.04027
 21
8517.000451
 31
0.0
  0
LINE
  5
709E0
  8
0
 10
8959.79069
 20
8451.000451
 30
0.0
 11
8959.79069
 21
8517.000451
 31
0.0
  0
LINE
  5
709E1
  8
0
 10
9936.54111
 20
8451.000451
 30
0.0
 11
9936.54111
 21
8517.000451
 31
0.0
  0
LINE
  5
709E2
  8
0
 10
10913.29153
 20
8451.000451
 30
0.0
 11
10913.29153
 21
8517.000451
 31
0.0
  0
LINE
  5
709E3
  8
0
 10
11890.04195
 20
8451.000451
 30
0.0
 11
11890.04195
 21
8517.000451
 31
0.0
  0
LINE
  5
7073F
  8
0
 10
-1777.46393
 20
8807.000451
 30
0.0
 11
-1642.46393
 21
8807.000451
 31
0.0
  0
LINE
  5
70884
  8
0
 10
-800.71351
 20
8807.000451
 30
0.0
 11
-665.71351
 21
8807.000451
 31
0.0
  0
LINE
  5
7088E
  8
0
 10
176.03691
 20
8807.000451
 30
0.0
 11
311.03691
 21
8807.000451
 31
0.0
  0
LINE
  5
70898
  8
0
 10
1152.78733
 20
8807.000451
 30
0.0
 11
1287.78733
 21
8807.000451
 31
0.0
  0
LINE
  5
708A2
  8
0
 10
2129.53775
 20
8807.000451
 30
0.0
 11
2264.53775
 21
8807.000451
 31
0.0
  0
LINE
  5
708AC
  8
0
 10
3106.28817
 20
8807.000451
 30
0.0
 11
3241.28817
 21
8807.000451
 31
0.0
  0
LINE
  5
708B6
  8
0
 10
4083.03859
 20
8807.000451
 30
0.0
 11
4218.03859
 21
8807.000451
 31
0.0
  0
LINE
  5
708CA
  8
0
 10
6036.53943
 20
8807.000451
 30
0.0
 11
6171.53943
 21
8807.000451
 31
0.0
  0
LINE
  5
708D4
  8
0
 10
7013.28985
 20
8807.000451
 30
0.0
 11
7148.28985
 21
8807.000451
 31
0.0
  0
LINE
  5
708DE
  8
0
 10
7990.04027
 20
8807.000451
 30
0.0
 11
8125.04027
 21
8807.000451
 31
0.0
  0
LINE
  5
708E8
  8
0
 10
8966.79069
 20
8807.000451
 30
0.0
 11
9101.79069
 21
8807.000451
 31
0.0
  0
LINE
  5
708F2
  8
0
 10
9943.54111
 20
8807.000451
 30
0.0
 11
10078.54111
 21
8807.000451
 31
0.0
  0
LINE
  5
708FC
  8
0
 10
10920.29153
 20
8807.000451
 30
0.0
 11
11055.29153
 21
8807.000451
 31
0.0
  0
LINE
  5
70906
  8
0
 10
11897.04195
 20
8807.000451
 30
0.0
 11
12032.04195
 21
8807.000451
 31
0.0
  0
LINE
  5
709E4
  8
0
 10
-1784.46393
 20
7181.000451
 30
0.0
 11
-1649.46393
 21
7181.000451
 31
0.0
  0
LINE
  5
709E5
  8
0
 10
-807.71351
 20
7181.000451
 30
0.0
 11
-672.71351
 21
7181.000451
 31
0.0
  0
LINE
  5
709E6
  8
0
 10
169.03691
 20
7181.000451
 30
0.0
 11
304.03691
 21
7181.000451
 31
0.0
  0
LINE
  5
709E7
  8
0
 10
1145.78733
 20
7181.000451
 30
0.0
 11
1280.78733
 21
7181.000451
 31
0.0
  0
LINE
  5
709E8
  8
0
 10
2122.53775
 20
7181.000451
 30
0.0
 11
2257.53775
 21
7181.000451
 31
0.0
  0
LINE
  5
709E9
  8
0
 10
3099.28817
 20
7181.000451
 30
0.0
 11
3234.28817
 21
7181.000451
 31
0.0
  0
LINE
  5
709EA
  8
0
 10
4076.03859
 20
7181.000451
 30
0.0
 11
4211.03859
 21
7181.000451
 31
0.0
  0
LINE
  5
709EB
  8
0
 10
6029.53943
 20
7181.000451
 30
0.0
 11
6164.53943
 21
7181.000451
 31
0.0
  0
LINE
  5
709EC
  8
0
 10
7006.28985
 20
7181.000451
 30
0.0
 11
7141.28985
 21
7181.000451
 31
0.0
  0
LINE
  5
709ED
  8
0
 10
7983.04027
 20
7181.000451
 30
0.0
 11
8118.04027
 21
7181.000451
 31
0.0
  0
LINE
  5
709EE
  8
0
 10
8959.79069
 20
7181.000451
 30
0.0
 11
9094.79069
 21
7181.000451
 31
0.0
  0
LINE
  5
709EF
  8
0
 10
9936.54111
 20
7181.000451
 30
0.0
 11
10071.54111
 21
7181.000451
 31
0.0
  0
LINE
  5
709F0
  8
0
 10
10913.29153
 20
7181.000451
 30
0.0
 11
11048.29153
 21
7181.000451
 31
0.0
  0
LINE
  5
709F1
  8
0
 10
11890.04195
 20
7181.000451
 30
0.0
 11
12025.04195
 21
7181.000451
 31
0.0
  0
LINE
  5
70740
  8
0
 10
-1642.46393
 20
8807.000451
 30
0.0
 11
-1642.46393
 21
8741.000451
 31
0.0
  0
LINE
  5
70885
  8
0
 10
-665.71351
 20
8807.000451
 30
0.0
 11
-665.71351
 21
8741.000451
 31
0.0
  0
LINE
  5
7088F
  8
0
 10
311.03691
 20
8807.000451
 30
0.0
 11
311.03691
 21
8741.000451
 31
0.0
  0
LINE
  5
70899
  8
0
 10
1287.78733
 20
8807.000451
 30
0.0
 11
1287.78733
 21
8741.000451
 31
0.0
  0
LINE
  5
708A3
  8
0
 10
2264.53775
 20
8807.000451
 30
0.0
 11
2264.53775
 21
8741.000451
 31
0.0
  0
LINE
  5
708AD
  8
0
 10
3241.28817
 20
8807.000451
 30
0.0
 11
3241.28817
 21
8741.000451
 31
0.0
  0
LINE
  5
708B7
  8
0
 10
4218.03859
 20
8807.000451
 30
0.0
 11
4218.03859
 21
8741.000451
 31
0.0
  0
LINE
  5
708CB
  8
0
 10
6171.53943
 20
8807.000451
 30
0.0
 11
6171.53943
 21
8741.000451
 31
0.0
  0
LINE
  5
708D5
  8
0
 10
7148.28985
 20
8807.000451
 30
0.0
 11
7148.28985
 21
8741.000451
 31
0.0
  0
LINE
  5
708DF
  8
0
 10
8125.04027
 20
8807.000451
 30
0.0
 11
8125.04027
 21
8741.000451
 31
0.0
  0
LINE
  5
708E9
  8
0
 10
9101.79069
 20
8807.000451
 30
0.0
 11
9101.79069
 21
8741.000451
 31
0.0
  0
LINE
  5
708F3
  8
0
 10
10078.54111
 20
8807.000451
 30
0.0
 11
10078.54111
 21
8741.000451
 31
0.0
  0
LINE
  5
708FD
  8
0
 10
11055.29153
 20
8807.000451
 30
0.0
 11
11055.29153
 21
8741.000451
 31
0.0
  0
LINE
  5
70907
  8
0
 10
12032.04195
 20
8807.000451
 30
0.0
 11
12032.04195
 21
8741.000451
 31
0.0
  0
LINE
  5
709F2
  8
0
 10
-1649.46393
 20
7181.000451
 30
0.0
 11
-1649.46393
 21
7115.000451
 31
0.0
  0
LINE
  5
709F3
  8
0
 10
-672.71351
 20
7181.000451
 30
0.0
 11
-672.71351
 21
7115.000451
 31
0.0
  0
LINE
  5
709F4
  8
0
 10
304.03691
 20
7181.000451
 30
0.0
 11
304.03691
 21
7115.000451
 31
0.0
  0
LINE
  5
709F5
  8
0
 10
1280.78733
 20
7181.000451
 30
0.0
 11
1280.78733
 21
7115.000451
 31
0.0
  0
LINE
  5
709F6
  8
0
 10
2257.53775
 20
7181.000451
 30
0.0
 11
2257.53775
 21
7115.000451
 31
0.0
  0
LINE
  5
709F7
  8
0
 10
3234.28817
 20
7181.000451
 30
0.0
 11
3234.28817
 21
7115.000451
 31
0.0
  0
LINE
  5
709F8
  8
0
 10
4211.03859
 20
7181.000451
 30
0.0
 11
4211.03859
 21
7115.000451
 31
0.0
  0
LINE
  5
709F9
  8
0
 10
6164.53943
 20
7181.000451
 30
0.0
 11
6164.53943
 21
7115.000451
 31
0.0
  0
LINE
  5
709FA
  8
0
 10
7141.28985
 20
7181.000451
 30
0.0
 11
7141.28985
 21
7115.000451
 31
0.0
  0
LINE
  5
709FB
  8
0
 10
8118.04027
 20
7181.000451
 30
0.0
 11
8118.04027
 21
7115.000451
 31
0.0
  0
LINE
  5
709FC
  8
0
 10
9094.79069
 20
7181.000451
 30
0.0
 11
9094.79069
 21
7115.000451
 31
0.0
  0
LINE
  5
709FD
  8
0
 10
10071.54111
 20
7181.000451
 30
0.0
 11
10071.54111
 21
7115.000451
 31
0.0
  0
LINE
  5
709FE
  8
0
 10
11048.29153
 20
7181.000451
 30
0.0
 11
11048.29153
 21
7115.000451
 31
0.0
  0
LINE
  5
709FF
  8
0
 10
12025.04195
 20
7181.000451
 30
0.0
 11
12025.04195
 21
7115.000451
 31
0.0
  0
LINE
  5
70741
  8
0
 10
-1642.46393
 20
8741.000451
 30
0.0
 11
-1777.46393
 21
8741.000451
 31
0.0
  0
LINE
  5
70886
  8
0
 10
-665.71351
 20
8741.000451
 30
0.0
 11
-800.71351
 21
8741.000451
 31
0.0
  0
LINE
  5
70890
  8
0
 10
311.03691
 20
8741.000451
 30
0.0
 11
176.03691
 21
8741.000451
 31
0.0
  0
LINE
  5
7089A
  8
0
 10
1287.78733
 20
8741.000451
 30
0.0
 11
1152.78733
 21
8741.000451
 31
0.0
  0
LINE
  5
708A4
  8
0
 10
2264.53775
 20
8741.000451
 30
0.0
 11
2129.53775
 21
8741.000451
 31
0.0
  0
LINE
  5
708AE
  8
0
 10
3241.28817
 20
8741.000451
 30
0.0
 11
3106.28817
 21
8741.000451
 31
0.0
  0
LINE
  5
708B8
  8
0
 10
4218.03859
 20
8741.000451
 30
0.0
 11
4083.03859
 21
8741.000451
 31
0.0
  0
LINE
  5
708CC
  8
0
 10
6171.53943
 20
8741.000451
 30
0.0
 11
6036.53943
 21
8741.000451
 31
0.0
  0
LINE
  5
708D6
  8
0
 10
7148.28985
 20
8741.000451
 30
0.0
 11
7013.28985
 21
8741.000451
 31
0.0
  0
LINE
  5
708E0
  8
0
 10
8125.04027
 20
8741.000451
 30
0.0
 11
7990.04027
 21
8741.000451
 31
0.0
  0
LINE
  5
708EA
  8
0
 10
9101.79069
 20
8741.000451
 30
0.0
 11
8966.79069
 21
8741.000451
 31
0.0
  0
LINE
  5
708F4
  8
0
 10
10078.54111
 20
8741.000451
 30
0.0
 11
9943.54111
 21
8741.000451
 31
0.0
  0
LINE
  5
708FE
  8
0
 10
11055.29153
 20
8741.000451
 30
0.0
 11
10920.29153
 21
8741.000451
 31
0.0
  0
LINE
  5
70908
  8
0
 10
12032.04195
 20
8741.000451
 30
0.0
 11
11897.04195
 21
8741.000451
 31
0.0
  0
LINE
  5
70A00
  8
0
 10
-1649.46393
 20
7115.000451
 30
0.0
 11
-1784.46393
 21
7115.000451
 31
0.0
  0
LINE
  5
70A01
  8
0
 10
-672.71351
 20
7115.000451
 30
0.0
 11
-807.71351
 21
7115.000451
 31
0.0
  0
LINE
  5
70A02
  8
0
 10
304.03691
 20
7115.000451
 30
0.0
 11
169.03691
 21
7115.000451
 31
0.0
  0
LINE
  5
70A03
  8
0
 10
1280.78733
 20
7115.000451
 30
0.0
 11
1145.78733
 21
7115.000451
 31
0.0
  0
LINE
  5
70A04
  8
0
 10
2257.53775
 20
7115.000451
 30
0.0
 11
2122.53775
 21
7115.000451
 31
0.0
  0
LINE
  5
70A05
  8
0
 10
3234.28817
 20
7115.000451
 30
0.0
 11
3099.28817
 21
7115.000451
 31
0.0
  0
LINE
  5
70A06
  8
0
 10
4211.03859
 20
7115.000451
 30
0.0
 11
4076.03859
 21
7115.000451
 31
0.0
  0
LINE
  5
70A07
  8
0
 10
6164.53943
 20
7115.000451
 30
0.0
 11
6029.53943
 21
7115.000451
 31
0.0
  0
LINE
  5
70A08
  8
0
 10
7141.28985
 20
7115.000451
 30
0.0
 11
7006.28985
 21
7115.000451
 31
0.0
  0
LINE
  5
70A09
  8
0
 10
8118.04027
 20
7115.000451
 30
0.0
 11
7983.04027
 21
7115.000451
 31
0.0
  0
LINE
  5
70A0A
  8
0
 10
9094.79069
 20
7115.000451
 30
0.0
 11
8959.79069
 21
7115.000451
 31
0.0
  0
LINE
  5
70A0B
  8
0
 10
10071.54111
 20
7115.000451
 30
0.0
 11
9936.54111
 21
7115.000451
 31
0.0
  0
LINE
  5
70A0C
  8
0
 10
11048.29153
 20
7115.000451
 30
0.0
 11
10913.29153
 21
7115.000451
 31
0.0
  0
LINE
  5
70A0D
  8
0
 10
12025.04195
 20
7115.000451
 30
0.0
 11
11890.04195
 21
7115.000451
 31
0.0
  0
LINE
  5
70742
  8
0
 10
-1777.46393
 20
8741.000451
 30
0.0
 11
-1777.46393
 21
8807.000451
 31
0.0
  0
LINE
  5
70887
  8
0
 10
-800.71351
 20
8741.000451
 30
0.0
 11
-800.71351
 21
8807.000451
 31
0.0
  0
LINE
  5
70891
  8
0
 10
176.03691
 20
8741.000451
 30
0.0
 11
176.03691
 21
8807.000451
 31
0.0
  0
LINE
  5
7089B
  8
0
 10
1152.78733
 20
8741.000451
 30
0.0
 11
1152.78733
 21
8807.000451
 31
0.0
  0
LINE
  5
708A5
  8
0
 10
2129.53775
 20
8741.000451
 30
0.0
 11
2129.53775
 21
8807.000451
 31
0.0
  0
LINE
  5
708AF
  8
0
 10
3106.28817
 20
8741.000451
 30
0.0
 11
3106.28817
 21
8807.000451
 31
0.0
  0
LINE
  5
708B9
  8
0
 10
4083.03859
 20
8741.000451
 30
0.0
 11
4083.03859
 21
8807.000451
 31
0.0
  0
LINE
  5
708CD
  8
0
 10
6036.53943
 20
8741.000451
 30
0.0
 11
6036.53943
 21
8807.000451
 31
0.0
  0
LINE
  5
708D7
  8
0
 10
7013.28985
 20
8741.000451
 30
0.0
 11
7013.28985
 21
8807.000451
 31
0.0
  0
LINE
  5
708E1
  8
0
 10
7990.04027
 20
8741.000451
 30
0.0
 11
7990.04027
 21
8807.000451
 31
0.0
  0
LINE
  5
708EB
  8
0
 10
8966.79069
 20
8741.000451
 30
0.0
 11
8966.79069
 21
8807.000451
 31
0.0
  0
LINE
  5
708F5
  8
0
 10
9943.54111
 20
8741.000451
 30
0.0
 11
9943.54111
 21
8807.000451
 31
0.0
  0
LINE
  5
708FF
  8
0
 10
10920.29153
 20
8741.000451
 30
0.0
 11
10920.29153
 21
8807.000451
 31
0.0
  0
LINE
  5
70909
  8
0
 10
11897.04195
 20
8741.000451
 30
0.0
 11
11897.04195
 21
8807.000451
 31
0.0
  0
LINE
  5
70A0E
  8
0
 10
-1784.46393
 20
7115.000451
 30
0.0
 11
-1784.46393
 21
7181.000451
 31
0.0
  0
LINE
  5
70A0F
  8
0
 10
-807.71351
 20
7115.000451
 30
0.0
 11
-807.71351
 21
7181.000451
 31
0.0
  0
LINE
  5
70A10
  8
0
 10
169.03691
 20
7115.000451
 30
0.0
 11
169.03691
 21
7181.000451
 31
0.0
  0
LINE
  5
70A11
  8
0
 10
1145.78733
 20
7115.000451
 30
0.0
 11
1145.78733
 21
7181.000451
 31
0.0
  0
LINE
  5
70A12
  8
0
 10
2122.53775
 20
7115.000451
 30
0.0
 11
2122.53775
 21
7181.000451
 31
0.0
  0
LINE
  5
70A13
  8
0
 10
3099.28817
 20
7115.000451
 30
0.0
 11
3099.28817
 21
7181.000451
 31
0.0
  0
LINE
  5
70A14
  8
0
 10
4076.03859
 20
7115.000451
 30
0.0
 11
4076.03859
 21
7181.000451
 31
0.0
  0
LINE
  5
70A15
  8
0
 10
6029.53943
 20
7115.000451
 30
0.0
 11
6029.53943
 21
7181.000451
 31
0.0
  0
LINE
  5
70A16
  8
0
 10
7006.28985
 20
7115.000451
 30
0.0
 11
7006.28985
 21
7181.000451
 31
0.0
  0
LINE
  5
70A17
  8
0
 10
7983.04027
 20
7115.000451
 30
0.0
 11
7983.04027
 21
7181.000451
 31
0.0
  0
LINE
  5
70A18
  8
0
 10
8959.79069
 20
7115.000451
 30
0.0
 11
8959.79069
 21
7181.000451
 31
0.0
  0
LINE
  5
70A19
  8
0
 10
9936.54111
 20
7115.000451
 30
0.0
 11
9936.54111
 21
7181.000451
 31
0.0
  0
LINE
  5
70A1A
  8
0
 10
10913.29153
 20
7115.000451
 30
0.0
 11
10913.29153
 21
7181.000451
 31
0.0
  0
LINE
  5
70A1B
  8
0
 10
11890.04195
 20
7115.000451
 30
0.0
 11
11890.04195
 21
7181.000451
 31
0.0
  0
LINE
  5
70744
  8
0
 10
-1682.46393
 20
8807.000451
 30
0.0
 11
-1682.46393
 21
10077.000451
 31
0.0
  0
LINE
  5
70888
  8
0
 10
-705.71351
 20
8807.000451
 30
0.0
 11
-705.71351
 21
10077.000451
 31
0.0
  0
LINE
  5
70892
  8
0
 10
271.03691
 20
8807.000451
 30
0.0
 11
271.03691
 21
10077.000451
 31
0.0
  0
LINE
  5
7089C
  8
0
 10
1247.78733
 20
8807.000451
 30
0.0
 11
1247.78733
 21
10077.000451
 31
0.0
  0
LINE
  5
708A6
  8
0
 10
2224.53775
 20
8807.000451
 30
0.0
 11
2224.53775
 21
10077.000451
 31
0.0
  0
LINE
  5
708B0
  8
0
 10
3201.28817
 20
8807.000451
 30
0.0
 11
3201.28817
 21
10077.000451
 31
0.0
  0
LINE
  5
708BA
  8
0
 10
4178.03859
 20
8807.000451
 30
0.0
 11
4178.03859
 21
10077.000451
 31
0.0
  0
LINE
  5
708CE
  8
0
 10
6131.53943
 20
8807.000451
 30
0.0
 11
6131.53943
 21
10077.000451
 31
0.0
  0
LINE
  5
708D8
  8
0
 10
7108.28985
 20
8807.000451
 30
0.0
 11
7108.28985
 21
10077.000451
 31
0.0
  0
LINE
  5
708E2
  8
0
 10
8085.04027
 20
8807.000451
 30
0.0
 11
8085.04027
 21
10077.000451
 31
0.0
  0
LINE
  5
708EC
  8
0
 10
9061.79069
 20
8807.000451
 30
0.0
 11
9061.79069
 21
10077.000451
 31
0.0
  0
LINE
  5
708F6
  8
0
 10
10038.54111
 20
8807.000451
 30
0.0
 11
10038.54111
 21
10077.000451
 31
0.0
  0
LINE
  5
70900
  8
0
 10
11015.29153
 20
8807.000451
 30
0.0
 11
11015.29153
 21
10077.000451
 31
0.0
  0
LINE
  5
7090A
  8
0
 10
11992.04195
 20
8807.000451
 30
0.0
 11
11992.04195
 21
10077.000451
 31
0.0
  0
LINE
  5
70A1C
  8
0
 10
-1689.46393
 20
7181.000451
 30
0.0
 11
-1689.46393
 21
8451.000451
 31
0.0
  0
LINE
  5
70A1D
  8
0
 10
-712.71351
 20
7181.000451
 30
0.0
 11
-712.71351
 21
8451.000451
 31
0.0
  0
LINE
  5
70A1E
  8
0
 10
264.03691
 20
7181.000451
 30
0.0
 11
264.03691
 21
8451.000451
 31
0.0
  0
LINE
  5
70A1F
  8
0
 10
1240.78733
 20
7181.000451
 30
0.0
 11
1240.78733
 21
8451.000451
 31
0.0
  0
LINE
  5
70A20
  8
0
 10
2217.53775
 20
7181.000451
 30
0.0
 11
2217.53775
 21
8451.000451
 31
0.0
  0
LINE
  5
70A21
  8
0
 10
3194.28817
 20
7181.000451
 30
0.0
 11
3194.28817
 21
8451.000451
 31
0.0
  0
LINE
  5
70A22
  8
0
 10
4171.03859
 20
7181.000451
 30
0.0
 11
4171.03859
 21
8451.000451
 31
0.0
  0
LINE
  5
70A23
  8
0
 10
6124.53943
 20
7181.000451
 30
0.0
 11
6124.53943
 21
8451.000451
 31
0.0
  0
LINE
  5
70A24
  8
0
 10
7101.28985
 20
7181.000451
 30
0.0
 11
7101.28985
 21
8451.000451
 31
0.0
  0
LINE
  5
70A25
  8
0
 10
8078.04027
 20
7181.000451
 30
0.0
 11
8078.04027
 21
8451.000451
 31
0.0
  0
LINE
  5
70A26
  8
0
 10
9054.79069
 20
7181.000451
 30
0.0
 11
9054.79069
 21
8451.000451
 31
0.0
  0
LINE
  5
70A27
  8
0
 10
10031.54111
 20
7181.000451
 30
0.0
 11
10031.54111
 21
8451.000451
 31
0.0
  0
LINE
  5
70A28
  8
0
 10
11008.29153
 20
7181.000451
 30
0.0
 11
11008.29153
 21
8451.000451
 31
0.0
  0
LINE
  5
70A29
  8
0
 10
11985.04195
 20
7181.000451
 30
0.0
 11
11985.04195
 21
8451.000451
 31
0.0
  0
LINE
  5
70844
  8
0
 10
-1737.46393
 20
8807.000451
 30
0.0
 11
-1737.46393
 21
10077.000451
 31
0.0
  0
LINE
  5
70889
  8
0
 10
-760.71351
 20
8807.000451
 30
0.0
 11
-760.71351
 21
10077.000451
 31
0.0
  0
LINE
  5
70893
  8
0
 10
216.03691
 20
8807.000451
 30
0.0
 11
216.03691
 21
10077.000451
 31
0.0
  0
LINE
  5
7089D
  8
0
 10
1192.78733
 20
8807.000451
 30
0.0
 11
1192.78733
 21
10077.000451
 31
0.0
  0
LINE
  5
708A7
  8
0
 10
2169.53775
 20
8807.000451
 30
0.0
 11
2169.53775
 21
10077.000451
 31
0.0
  0
LINE
  5
708B1
  8
0
 10
3146.28817
 20
8807.000451
 30
0.0
 11
3146.28817
 21
10077.000451
 31
0.0
  0
LINE
  5
708BB
  8
0
 10
4123.03859
 20
8807.000451
 30
0.0
 11
4123.03859
 21
10077.000451
 31
0.0
  0
LINE
  5
708CF
  8
0
 10
6076.53943
 20
8807.000451
 30
0.0
 11
6076.53943
 21
10077.000451
 31
0.0
  0
LINE
  5
708D9
  8
0
 10
7053.28985
 20
8807.000451
 30
0.0
 11
7053.28985
 21
10077.000451
 31
0.0
  0
LINE
  5
708E3
  8
0
 10
8030.04027
 20
8807.000451
 30
0.0
 11
8030.04027
 21
10077.000451
 31
0.0
  0
LINE
  5
708ED
  8
0
 10
9006.79069
 20
8807.000451
 30
0.0
 11
9006.79069
 21
10077.000451
 31
0.0
  0
LINE
  5
708F7
  8
0
 10
9983.54111
 20
8807.000451
 30
0.0
 11
9983.54111
 21
10077.000451
 31
0.0
  0
LINE
  5
70901
  8
0
 10
10960.29153
 20
8807.000451
 30
0.0
 11
10960.29153
 21
10077.000451
 31
0.0
  0
LINE
  5
7090B
  8
0
 10
11937.04195
 20
8807.000451
 30
0.0
 11
11937.04195
 21
10077.000451
 31
0.0
  0
LINE
  5
70A2A
  8
0
 10
-1744.46393
 20
7181.000451
 30
0.0
 11
-1744.46393
 21
8451.000451
 31
0.0
  0
LINE
  5
70A2B
  8
0
 10
-767.71351
 20
7181.000451
 30
0.0
 11
-767.71351
 21
8451.000451
 31
0.0
  0
LINE
  5
70A2C
  8
0
 10
209.03691
 20
7181.000451
 30
0.0
 11
209.03691
 21
8451.000451
 31
0.0
  0
LINE
  5
70A2D
  8
0
 10
1185.78733
 20
7181.000451
 30
0.0
 11
1185.78733
 21
8451.000451
 31
0.0
  0
LINE
  5
70A2E
  8
0
 10
2162.53775
 20
7181.000451
 30
0.0
 11
2162.53775
 21
8451.000451
 31
0.0
  0
LINE
  5
70A2F
  8
0
 10
3139.28817
 20
7181.000451
 30
0.0
 11
3139.28817
 21
8451.000451
 31
0.0
  0
LINE
  5
70A30
  8
0
 10
4116.03859
 20
7181.000451
 30
0.0
 11
4116.03859
 21
8451.000451
 31
0.0
  0
LINE
  5
70A31
  8
0
 10
6069.53943
 20
7181.000451
 30
0.0
 11
6069.53943
 21
8451.000451
 31
0.0
  0
LINE
  5
70A32
  8
0
 10
7046.28985
 20
7181.000451
 30
0.0
 11
7046.28985
 21
8451.000451
 31
0.0
  0
LINE
  5
70A33
  8
0
 10
8023.04027
 20
7181.000451
 30
0.0
 11
8023.04027
 21
8451.000451
 31
0.0
  0
LINE
  5
70A34
  8
0
 10
8999.79069
 20
7181.000451
 30
0.0
 11
8999.79069
 21
8451.000451
 31
0.0
  0
LINE
  5
70A35
  8
0
 10
9976.54111
 20
7181.000451
 30
0.0
 11
9976.54111
 21
8451.000451
 31
0.0
  0
LINE
  5
70A36
  8
0
 10
10953.29153
 20
7181.000451
 30
0.0
 11
10953.29153
 21
8451.000451
 31
0.0
  0
LINE
  5
70A37
  8
0
 10
11930.04195
 20
7181.000451
 30
0.0
 11
11930.04195
 21
8451.000451
 31
0.0
  0
LINE
  5
70B4A
  8
0
 10
-1812.03226
 20
-568.489774
 30
0.0
 11
-1812.03226
 21
942.489774
 31
0.0
  0
LINE
  5
70CC7
  8
0
 10
18852.012176
 20
15034.100118
 30
0.0
 11
18952.028305
 21
15034.100118
 31
0.0
  0
LINE
  5
70CC8
  8
0
 10
18952.028305
 20
15034.100118
 30
0.0
 11
18952.028305
 21
11707.850059
 31
0.0
  0
LINE
  5
70CC9
  8
0
 10
18952.028305
 20
11707.850059
 30
0.0
 11
18852.012176
 21
11707.850059
 31
0.0
  0
LINE
  5
70CCA
  8
0
 10
18852.012176
 20
11707.850059
 30
0.0
 11
18852.012176
 21
15034.100118
 31
0.0
  0
LINE
  5
7070FC3
  8
0
 10
18851.971326
 20
11484.140342
 30
0.0
 11
18951.987454
 21
11484.140342
 31
0.0
  0
LINE
  5
7070FC4
  8
0
 10
18951.987454
 20
11484.140342
 30
0.0
 11
18951.987454
 21
8824.112813
 31
0.0
  0
LINE
  5
7070FC6
  8
0
 10
18851.971326
 20
8824.112813
 30
0.0
 11
18851.971326
 21
11484.140342
 31
0.0
  0
LINE
  5
7070FCE
  8
0
 10
18851.971326
 20
8824.112813
 30
0.0
 11
18951.987454
 21
8824.112813
 31
0.0
  0
LINE
  5
7070FD1
  8
0
 10
20283.511934
 20
15034.100118
 30
0.0
 11
20183.495805
 21
15034.100118
 31
0.0
  0
LINE
  5
7070FD2
  8
0
 10
20183.495805
 20
15034.100118
 30
0.0
 11
20183.495805
 21
11707.850059
 31
0.0
  0
LINE
  5
7070FD3
  8
0
 10
20183.495805
 20
11707.850059
 30
0.0
 11
20283.511934
 21
11707.850059
 31
0.0
  0
LINE
  5
7070FD4
  8
0
 10
20283.511934
 20
11707.850059
 30
0.0
 11
20283.511934
 21
15034.100118
 31
0.0
  0
LINE
  5
7070FD7
  8
0
 10
20183.454955
 20
11484.140342
 30
0.0
 11
20283.471083
 21
11484.140342
 31
0.0
  0
LINE
  5
7070FD8
  8
0
 10
20283.471083
 20
11484.140342
 30
0.0
 11
20283.471083
 21
8824.112813
 31
0.0
  0
LINE
  5
7070FD9
  8
0
 10
20183.454955
 20
8824.112813
 30
0.0
 11
20183.454955
 21
11484.140342
 31
0.0
  0
LINE
  5
7070FDA
  8
0
 10
20183.454955
 20
8824.112813
 30
0.0
 11
20283.471083
 21
8824.112813
 31
0.0
  0
LINE
  5
7070FDC
  8
0
 10
20652.012176
 20
15034.100118
 30
0.0
 11
20752.028305
 21
15034.100118
 31
0.0
  0
LINE
  5
7070FDD
  8
0
 10
20752.028305
 20
15034.100118
 30
0.0
 11
20752.028305
 21
11707.850059
 31
0.0
  0
LINE
  5
7070FDE
  8
0
 10
20752.028305
 20
11707.850059
 30
0.0
 11
20652.012176
 21
11707.850059
 31
0.0
  0
LINE
  5
7070FDF
  8
0
 10
20652.012176
 20
11707.850059
 30
0.0
 11
20652.012176
 21
15034.100118
 31
0.0
  0
LINE
  5
7070FE0
  8
0
 10
20651.971326
 20
11484.140342
 30
0.0
 11
20751.987454
 21
11484.140342
 31
0.0
  0
LINE
  5
7070FE1
  8
0
 10
20751.987454
 20
11484.140342
 30
0.0
 11
20751.987454
 21
8824.112813
 31
0.0
  0
LINE
  5
7070FE3
  8
0
 10
20651.971326
 20
8824.112813
 30
0.0
 11
20651.971326
 21
11484.140342
 31
0.0
  0
LINE
  5
7070FE4
  8
0
 10
20651.971326
 20
8824.112813
 30
0.0
 11
20751.987454
 21
8824.112813
 31
0.0
  0
LINE
  5
7070FE5
  8
0
 10
22083.511934
 20
15034.100118
 30
0.0
 11
21983.495805
 21
15034.100118
 31
0.0
  0
LINE
  5
7070FE6
  8
0
 10
21983.495805
 20
15034.100118
 30
0.0
 11
21983.495805
 21
11707.850059
 31
0.0
  0
LINE
  5
7070FE7
  8
0
 10
21983.495805
 20
11707.850059
 30
0.0
 11
22083.511934
 21
11707.850059
 31
0.0
  0
LINE
  5
7070FE8
  8
0
 10
22083.511934
 20
11707.850059
 30
0.0
 11
22083.511934
 21
15034.100118
 31
0.0
  0
LINE
  5
7070FEA
  8
0
 10
21983.454955
 20
11484.140342
 30
0.0
 11
22083.471083
 21
11484.140342
 31
0.0
  0
LINE
  5
7070FEB
  8
0
 10
22083.471083
 20
11484.140342
 30
0.0
 11
22083.471083
 21
8824.112813
 31
0.0
  0
LINE
  5
7070FEC
  8
0
 10
21983.454955
 20
8824.112813
 30
0.0
 11
21983.454955
 21
11484.140342
 31
0.0
  0
LINE
  5
7070FED
  8
0
 10
21983.454955
 20
8824.112813
 30
0.0
 11
22083.471083
 21
8824.112813
 31
0.0
  0
LINE
  5
707100F
  8
0
 10
-1599.87609
 20
6049.870072
 30
0.0
 11
-1464.87609
 21
6049.870072
 31
0.0
  0
LINE
  5
7071010
  8
0
 10
-623.12567
 20
6049.870072
 30
0.0
 11
-488.12567
 21
6049.870072
 31
0.0
  0
LINE
  5
7071011
  8
0
 10
353.62475
 20
6049.870072
 30
0.0
 11
488.62475
 21
6049.870072
 31
0.0
  0
LINE
  5
7071012
  8
0
 10
1330.37517
 20
6049.870072
 30
0.0
 11
1465.37517
 21
6049.870072
 31
0.0
  0
LINE
  5
7071013
  8
0
 10
2307.12559
 20
6049.870072
 30
0.0
 11
2442.12559
 21
6049.870072
 31
0.0
  0
LINE
  5
7071014
  8
0
 10
3283.87601
 20
6049.870072
 30
0.0
 11
3418.87601
 21
6049.870072
 31
0.0
  0
LINE
  5
7071015
  8
0
 10
4260.62643
 20
6049.870072
 30
0.0
 11
4395.62643
 21
6049.870072
 31
0.0
  0
LINE
  5
7071016
  8
0
 10
-1464.87609
 20
6049.870072
 30
0.0
 11
-1464.87609
 21
5983.870072
 31
0.0
  0
LINE
  5
7071017
  8
0
 10
-488.12567
 20
6049.870072
 30
0.0
 11
-488.12567
 21
5983.870072
 31
0.0
  0
LINE
  5
7071018
  8
0
 10
488.62475
 20
6049.870072
 30
0.0
 11
488.62475
 21
5983.870072
 31
0.0
  0
LINE
  5
7071019
  8
0
 10
1465.37517
 20
6049.870072
 30
0.0
 11
1465.37517
 21
5983.870072
 31
0.0
  0
LINE
  5
707101A
  8
0
 10
2442.12559
 20
6049.870072
 30
0.0
 11
2442.12559
 21
5983.870072
 31
0.0
  0
LINE
  5
707101B
  8
0
 10
3418.87601
 20
6049.870072
 30
0.0
 11
3418.87601
 21
5983.870072
 31
0.0
  0
LINE
  5
707101C
  8
0
 10
4395.62643
 20
6049.870072
 30
0.0
 11
4395.62643
 21
5983.870072
 31
0.0
  0
LINE
  5
707101D
  8
0
 10
-1464.87609
 20
5983.870072
 30
0.0
 11
-1599.87609
 21
5983.870072
 31
0.0
  0
LINE
  5
707101E
  8
0
 10
-488.12567
 20
5983.870072
 30
0.0
 11
-623.12567
 21
5983.870072
 31
0.0
  0
LINE
  5
707101F
  8
0
 10
488.62475
 20
5983.870072
 30
0.0
 11
353.62475
 21
5983.870072
 31
0.0
  0
LINE
  5
7071020
  8
0
 10
1465.37517
 20
5983.870072
 30
0.0
 11
1330.37517
 21
5983.870072
 31
0.0
  0
LINE
  5
7071021
  8
0
 10
2442.12559
 20
5983.870072
 30
0.0
 11
2307.12559
 21
5983.870072
 31
0.0
  0
LINE
  5
7071022
  8
0
 10
3418.87601
 20
5983.870072
 30
0.0
 11
3283.87601
 21
5983.870072
 31
0.0
  0
LINE
  5
7071023
  8
0
 10
4395.62643
 20
5983.870072
 30
0.0
 11
4260.62643
 21
5983.870072
 31
0.0
  0
LINE
  5
7071024
  8
0
 10
-1599.87609
 20
5983.870072
 30
0.0
 11
-1599.87609
 21
6049.870072
 31
0.0
  0
LINE
  5
7071025
  8
0
 10
-623.12567
 20
5983.870072
 30
0.0
 11
-623.12567
 21
6049.870072
 31
0.0
  0
LINE
  5
7071026
  8
0
 10
353.62475
 20
5983.870072
 30
0.0
 11
353.62475
 21
6049.870072
 31
0.0
  0
LINE
  5
7071027
  8
0
 10
1330.37517
 20
5983.870072
 30
0.0
 11
1330.37517
 21
6049.870072
 31
0.0
  0
LINE
  5
7071028
  8
0
 10
2307.12559
 20
5983.870072
 30
0.0
 11
2307.12559
 21
6049.870072
 31
0.0
  0
LINE
  5
7071029
  8
0
 10
3283.87601
 20
5983.870072
 30
0.0
 11
3283.87601
 21
6049.870072
 31
0.0
  0
LINE
  5
707102A
  8
0
 10
4260.62643
 20
5983.870072
 30
0.0
 11
4260.62643
 21
6049.870072
 31
0.0
  0
LINE
  5
707102B
  8
0
 10
-1599.87609
 20
4713.870072
 30
0.0
 11
-1464.87609
 21
4713.870072
 31
0.0
  0
LINE
  5
707102C
  8
0
 10
-623.12567
 20
4713.870072
 30
0.0
 11
-488.12567
 21
4713.870072
 31
0.0
  0
LINE
  5
707102D
  8
0
 10
353.62475
 20
4713.870072
 30
0.0
 11
488.62475
 21
4713.870072
 31
0.0
  0
LINE
  5
707102E
  8
0
 10
1330.37517
 20
4713.870072
 30
0.0
 11
1465.37517
 21
4713.870072
 31
0.0
  0
LINE
  5
707102F
  8
0
 10
2307.12559
 20
4713.870072
 30
0.0
 11
2442.12559
 21
4713.870072
 31
0.0
  0
LINE
  5
7071030
  8
0
 10
3283.87601
 20
4713.870072
 30
0.0
 11
3418.87601
 21
4713.870072
 31
0.0
  0
LINE
  5
7071031
  8
0
 10
4260.62643
 20
4713.870072
 30
0.0
 11
4395.62643
 21
4713.870072
 31
0.0
  0
LINE
  5
7071032
  8
0
 10
-1464.87609
 20
4713.870072
 30
0.0
 11
-1464.87609
 21
4647.870072
 31
0.0
  0
LINE
  5
7071033
  8
0
 10
-488.12567
 20
4713.870072
 30
0.0
 11
-488.12567
 21
4647.870072
 31
0.0
  0
LINE
  5
7071034
  8
0
 10
488.62475
 20
4713.870072
 30
0.0
 11
488.62475
 21
4647.870072
 31
0.0
  0
LINE
  5
7071035
  8
0
 10
1465.37517
 20
4713.870072
 30
0.0
 11
1465.37517
 21
4647.870072
 31
0.0
  0
LINE
  5
7071036
  8
0
 10
2442.12559
 20
4713.870072
 30
0.0
 11
2442.12559
 21
4647.870072
 31
0.0
  0
LINE
  5
7071037
  8
0
 10
3418.87601
 20
4713.870072
 30
0.0
 11
3418.87601
 21
4647.870072
 31
0.0
  0
LINE
  5
7071038
  8
0
 10
4395.62643
 20
4713.870072
 30
0.0
 11
4395.62643
 21
4647.870072
 31
0.0
  0
LINE
  5
7071039
  8
0
 10
-1464.87609
 20
4647.870072
 30
0.0
 11
-1599.87609
 21
4647.870072
 31
0.0
  0
LINE
  5
707103A
  8
0
 10
-488.12567
 20
4647.870072
 30
0.0
 11
-623.12567
 21
4647.870072
 31
0.0
  0
LINE
  5
707103B
  8
0
 10
488.62475
 20
4647.870072
 30
0.0
 11
353.62475
 21
4647.870072
 31
0.0
  0
LINE
  5
707103C
  8
0
 10
1465.37517
 20
4647.870072
 30
0.0
 11
1330.37517
 21
4647.870072
 31
0.0
  0
LINE
  5
707103D
  8
0
 10
2442.12559
 20
4647.870072
 30
0.0
 11
2307.12559
 21
4647.870072
 31
0.0
  0
LINE
  5
707103E
  8
0
 10
3418.87601
 20
4647.870072
 30
0.0
 11
3283.87601
 21
4647.870072
 31
0.0
  0
LINE
  5
707103F
  8
0
 10
4395.62643
 20
4647.870072
 30
0.0
 11
4260.62643
 21
4647.870072
 31
0.0
  0
LINE
  5
7071040
  8
0
 10
-1599.87609
 20
4647.870072
 30
0.0
 11
-1599.87609
 21
4713.870072
 31
0.0
  0
LINE
  5
7071041
  8
0
 10
-623.12567
 20
4647.870072
 30
0.0
 11
-623.12567
 21
4713.870072
 31
0.0
  0
LINE
  5
7071042
  8
0
 10
353.62475
 20
4647.870072
 30
0.0
 11
353.62475
 21
4713.870072
 31
0.0
  0
LINE
  5
7071043
  8
0
 10
1330.37517
 20
4647.870072
 30
0.0
 11
1330.37517
 21
4713.870072
 31
0.0
  0
LINE
  5
7071044
  8
0
 10
2307.12559
 20
4647.870072
 30
0.0
 11
2307.12559
 21
4713.870072
 31
0.0
  0
LINE
  5
7071045
  8
0
 10
3283.87601
 20
4647.870072
 30
0.0
 11
3283.87601
 21
4713.870072
 31
0.0
  0
LINE
  5
7071046
  8
0
 10
4260.62643
 20
4647.870072
 30
0.0
 11
4260.62643
 21
4713.870072
 31
0.0
  0
LINE
  5
7071047
  8
0
 10
-1504.87609
 20
4713.870072
 30
0.0
 11
-1504.87609
 21
5983.870072
 31
0.0
  0
LINE
  5
7071048
  8
0
 10
-528.12567
 20
4713.870072
 30
0.0
 11
-528.12567
 21
5983.870072
 31
0.0
  0
LINE
  5
7071049
  8
0
 10
448.62475
 20
4713.870072
 30
0.0
 11
448.62475
 21
5983.870072
 31
0.0
  0
LINE
  5
707104A
  8
0
 10
1425.37517
 20
4713.870072
 30
0.0
 11
1425.37517
 21
5983.870072
 31
0.0
  0
LINE
  5
707104B
  8
0
 10
2402.12559
 20
4713.870072
 30
0.0
 11
2402.12559
 21
5983.870072
 31
0.0
  0
LINE
  5
707104C
  8
0
 10
3378.87601
 20
4713.870072
 30
0.0
 11
3378.87601
 21
5983.870072
 31
0.0
  0
LINE
  5
707104D
  8
0
 10
4355.62643
 20
4713.870072
 30
0.0
 11
4355.62643
 21
5983.870072
 31
0.0
  0
LINE
  5
707104E
  8
0
 10
-1559.87609
 20
4713.870072
 30
0.0
 11
-1559.87609
 21
5983.870072
 31
0.0
  0
LINE
  5
707104F
  8
0
 10
-583.12567
 20
4713.870072
 30
0.0
 11
-583.12567
 21
5983.870072
 31
0.0
  0
LINE
  5
7071050
  8
0
 10
393.62475
 20
4713.870072
 30
0.0
 11
393.62475
 21
5983.870072
 31
0.0
  0
LINE
  5
7071051
  8
0
 10
1370.37517
 20
4713.870072
 30
0.0
 11
1370.37517
 21
5983.870072
 31
0.0
  0
LINE
  5
7071052
  8
0
 10
2347.12559
 20
4713.870072
 30
0.0
 11
2347.12559
 21
5983.870072
 31
0.0
  0
LINE
  5
7071053
  8
0
 10
3323.87601
 20
4713.870072
 30
0.0
 11
3323.87601
 21
5983.870072
 31
0.0
  0
LINE
  5
7071054
  8
0
 10
4300.62643
 20
4713.870072
 30
0.0
 11
4300.62643
 21
5983.870072
 31
0.0
  0
LINE
  5
7071055
  8
0
 10
7745.42333
 20
668.872845
 30
0.0
 11
7745.42333
 21
-531.127155
 31
0.0
  0
LINE
  5
7071056
  8
0
 10
16960.62333
 20
668.872845
 30
0.0
 11
16960.62333
 21
-531.127155
 31
0.0
  0
LINE
  5
7071057
  8
0
 10
7745.42333
 20
2218.872845
 30
0.0
 11
16960.62333
 21
2218.872845
 31
0.0
  0
LINE
  5
7071058
  8
0
 10
16960.62333
 20
1018.872845
 30
0.0
 11
7745.42333
 21
1018.872845
 31
0.0
  0
LINE
  5
7071059
  8
0
 10
7745.42333
 20
668.872845
 30
0.0
 11
16960.62333
 21
668.872845
 31
0.0
  0
LINE
  5
707105A
  8
0
 10
16960.62333
 20
-531.127155
 30
0.0
 11
7745.42333
 21
-531.127155
 31
0.0
  0
LINE
  5
707105B
  8
0
 10
-1254.9436
 20
10904.525
 30
0.0
 11
18119.0564
 21
10904.43107
 31
0.0
  0
LINE
  5
707105C
  8
0
 10
18119.05543
 20
10704.43107
 30
0.0
 11
-1254.94457
 21
10704.525
 31
0.0
  0
ARC
  5
7071072
  8
0
 10
20467.88909
 20
4101.420399
 30
0.0
 40
1999.99999806
 50
0.0
 51
89.14004
  0
LINE
  5
70710A7
  8
0
 10
22085.25857
 20
-15264.285781
 30
0.0
 11
21985.23424
 21
-15264.285781
 31
0.0
  0
LINE
  5
70710A8
  8
0
 10
21985.23424
 20
-15264.285781
 30
0.0
 11
21985.23424
 21
-9264.287254
 31
0.0
  0
LINE
  5
70710A9
  8
0
 10
21985.23424
 20
-9264.287254
 30
0.0
 11
22085.25857
 21
-9264.287254
 31
0.0
  0
LINE
  5
70710AA
  8
0
 10
22085.25857
 20
-9264.287254
 30
0.0
 11
22085.25857
 21
-15264.285781
 31
0.0
  0
LINE
  5
70710AD
  8
0
 10
20653.72071
 20
-9264.287303
 30
0.0
 11
20753.71772
 21
-9264.287303
 31
0.0
  0
LINE
  5
70710AE
  8
0
 10
20753.71772
 20
-9264.287303
 30
0.0
 11
20753.71772
 21
-15264.285781
 31
0.0
  0
LINE
  5
70710AF
  8
0
 10
20753.71772
 20
-15264.285781
 30
0.0
 11
20653.72071
 21
-15264.285781
 31
0.0
  0
LINE
  5
70710B0
  8
0
 10
20653.72071
 20
-15264.285781
 30
0.0
 11
20653.72071
 21
-9264.287303
 31
0.0
  0
LINE
  5
70710B1
  8
0
 10
22085.25857
 20
-7094.285782
 30
0.0
 11
21985.23424
 21
-7094.285782
 31
0.0
  0
LINE
  5
70710B2
  8
0
 10
21985.23424
 20
-7094.285782
 30
0.0
 11
21985.23424
 21
-1094.287255
 31
0.0
  0
LINE
  5
70710B3
  8
0
 10
21985.23424
 20
-1094.287255
 30
0.0
 11
22085.25857
 21
-1094.287255
 31
0.0
  0
LINE
  5
70710B4
  8
0
 10
22085.25857
 20
-1094.287255
 30
0.0
 11
22085.25857
 21
-7094.285782
 31
0.0
  0
LINE
  5
70710B5
  8
0
 10
20653.72071
 20
-1094.287304
 30
0.0
 11
20753.71772
 21
-1094.287304
 31
0.0
  0
LINE
  5
70710B6
  8
0
 10
20753.71772
 20
-1094.287304
 30
0.0
 11
20753.71772
 21
-7094.285782
 31
0.0
  0
LINE
  5
70710B7
  8
0
 10
20753.71772
 20
-7094.285782
 30
0.0
 11
20653.72071
 21
-7094.285782
 31
0.0
  0
LINE
  5
70710B8
  8
0
 10
20653.72071
 20
-7094.285782
 30
0.0
 11
20653.72071
 21
-1094.287304
 31
0.0
  0
LINE
  5
70710B9
  8
0
 10
17438.09895
 20
3914.916444
 30
0.0
 11
23438.09797
 21
3914.916444
 31
0.0
  0
LINE
  5
70710BA
  8
0
 10
23438.09797
 20
3914.916444
 30
0.0
 11
23438.09797
 21
3814.948533
 31
0.0
  0
LINE
  5
70710BB
  8
0
 10
23438.09797
 20
3814.948533
 30
0.0
 11
17438.09895
 21
3814.948533
 31
0.0
  0
LINE
  5
70710BC
  8
0
 10
17438.09895
 20
3814.948533
 30
0.0
 11
17438.09895
 21
3914.916444
 31
0.0
  0
LINE
  5
70710BD
  8
0
 10
17438.10541
 20
2583.402916
 30
0.0
 11
23438.10442
 21
2583.402916
 31
0.0
  0
LINE
  5
70710BE
  8
0
 10
23438.10442
 20
2583.402916
 30
0.0
 11
23438.10442
 21
2483.407678
 31
0.0
  0
LINE
  5
70710BF
  8
0
 10
23438.10442
 20
2483.407678
 30
0.0
 11
17438.10541
 21
2483.407678
 31
0.0
  0
LINE
  5
70710C0
  8
0
 10
17438.10541
 20
2483.407678
 30
0.0
 11
17438.10541
 21
2583.402916
 31
0.0
  0
LINE
  5
70710C1
  8
0
 10
17438.09895
 20
4383.434696
 30
0.0
 11
23438.09797
 21
4383.434696
 31
0.0
  0
LINE
  5
70710C2
  8
0
 10
23438.09797
 20
4383.434696
 30
0.0
 11
23438.09797
 21
4283.466785
 31
0.0
  0
LINE
  5
70710C3
  8
0
 10
23438.09797
 20
4283.466785
 30
0.0
 11
17438.09895
 21
4283.466785
 31
0.0
  0
LINE
  5
70710C4
  8
0
 10
17438.09895
 20
4283.466785
 30
0.0
 11
17438.09895
 21
4383.434696
 31
0.0
  0
LINE
  5
70710C5
  8
0
 10
17497.9067
 20
5719.405863
 30
0.0
 11
23497.90577
 21
5719.405863
 31
0.0
  0
LINE
  5
70710C6
  8
0
 10
23497.90577
 20
5719.405863
 30
0.0
 11
23497.90577
 21
5619.437893
 31
0.0
  0
LINE
  5
70710C7
  8
0
 10
23497.90577
 20
5619.437893
 30
0.0
 11
17497.9067
 21
5619.437893
 31
0.0
  0
LINE
  5
70710C8
  8
0
 10
17497.9067
 20
5619.437893
 30
0.0
 11
17497.9067
 21
5719.405863
 31
0.0
  0
LINE
  5
70710C9
  8
0
 10
13874.286372
 20
2586.952144
 30
0.0
 11
16574.285392
 21
2586.952144
 31
0.0
  0
LINE
  5
70710CA
  8
0
 10
16574.285392
 20
2586.952144
 30
0.0
 11
16574.285392
 21
2486.96149
 31
0.0
  0
LINE
  5
70710CB
  8
0
 10
16574.285392
 20
2486.96149
 30
0.0
 11
13874.286372
 21
2486.96149
 31
0.0
  0
LINE
  5
70710CC
  8
0
 10
13874.286372
 20
2486.96149
 30
0.0
 11
13874.286372
 21
2586.952144
 31
0.0
  0
LINE
  5
70710CD
  8
0
 10
13874.27992
 20
3918.446257
 30
0.0
 11
16574.278932
 21
3918.446257
 31
0.0
  0
LINE
  5
70710CE
  8
0
 10
16574.278932
 20
3918.446257
 30
0.0
 11
16574.278932
 21
3818.459345
 31
0.0
  0
LINE
  5
70710CF
  8
0
 10
16574.278932
 20
3818.459345
 30
0.0
 11
13874.27992
 21
3818.459345
 31
0.0
  0
LINE
  5
70710D0
  8
0
 10
13874.27992
 20
3818.459345
 30
0.0
 11
13874.27992
 21
3918.446257
 31
0.0
  0
LINE
  5
70710D1
  8
0
 10
13874.27992
 20
4386.964509
 30
0.0
 11
16574.278932
 21
4386.964509
 31
0.0
  0
LINE
  5
70710D2
  8
0
 10
16574.278932
 20
4386.964509
 30
0.0
 11
16574.278932
 21
4286.977597
 31
0.0
  0
LINE
  5
70710D3
  8
0
 10
16574.278932
 20
4286.977597
 30
0.0
 11
13874.27992
 21
4286.977597
 31
0.0
  0
LINE
  5
70710D4
  8
0
 10
13874.27992
 20
4286.977597
 30
0.0
 11
13874.27992
 21
4386.964509
 31
0.0
  0
LINE
  5
70710D5
  8
0
 10
13874.27409
 20
5718.462364
 30
0.0
 11
16574.27248
 21
5718.462364
 31
0.0
  0
LINE
  5
70710D6
  8
0
 10
16574.27248
 20
5718.462364
 30
0.0
 11
16574.27248
 21
5618.471711
 31
0.0
  0
LINE
  5
70710D7
  8
0
 10
16574.27248
 20
5618.471711
 30
0.0
 11
13874.27409
 21
5618.471711
 31
0.0
  0
LINE
  5
70710D8
  8
0
 10
13874.27409
 20
5618.471711
 30
0.0
 11
13874.27409
 21
5718.462364
 31
0.0
  0
LINE
  5
70710D9
  8
0
 10
18841.761099
 20
15334.58857
 30
0.0
 11
22391.761579
 21
15334.58857
 31
0.0
  0
LINE
  5
70710DA
  8
0
 10
22391.761579
 20
15334.58857
 30
0.0
 11
22391.761579
 21
15234.605781
 31
0.0
  0
LINE
  5
70710DB
  8
0
 10
22391.761579
 20
15234.605781
 30
0.0
 11
18841.761099
 21
15234.605781
 31
0.0
  0
LINE
  5
70710DC
  8
0
 10
18841.761099
 20
15234.605781
 30
0.0
 11
18841.761099
 21
15334.58857
 31
0.0
  0
LINE
  5
70710DD
  8
0
 10
18841.78072
 20
11634.588575
 30
0.0
 11
22391.7812
 21
11634.588575
 31
0.0
  0
LINE
  5
70710DE
  8
0
 10
22391.7812
 20
11634.588575
 30
0.0
 11
22391.7812
 21
11534.605786
 31
0.0
  0
LINE
  5
70710DF
  8
0
 10
22391.7812
 20
11534.605786
 30
0.0
 11
18841.78072
 21
11534.605786
 31
0.0
  0
LINE
  5
70710E0
  8
0
 10
18841.78072
 20
11534.605786
 30
0.0
 11
18841.78072
 21
11634.588575
 31
0.0
  0
LINE
  5
70712A1
  8
0
 10
4257.681301
 20
-568.489774
 30
0.0
 11
4257.681301
 21
942.489774
 31
0.0
  0
LINE
  5
70712AF
  8
0
 10
-1812.03226
 20
1069.510227
 30
0.0
 11
-1812.03226
 21
2580.489773
 31
0.0
  0
LINE
  5
70712B0
  8
0
 10
4257.681301
 20
1069.510227
 30
0.0
 11
4257.681301
 21
2580.489773
 31
0.0
  0
LINE
  5
70712B3
  8
0
 10
-1812.03226
 20
2707.510226
 30
0.0
 11
-1812.03226
 21
4218.489773
 31
0.0
  0
LINE
  5
70712B4
  8
0
 10
4257.681301
 20
2707.510226
 30
0.0
 11
4257.681301
 21
4218.489773
 31
0.0
  0
LINE
  5
7071343
  8
0
 62
     7
 10
-6084.776299
 20
15409.834312
 30
0.0
 11
-6084.776299
 21
15419.834312
 31
0.0
  0
LINE
  5
707134A
  8
0
 62
     7
 10
4257.681301
 20
-568.489774
 30
0.0
 11
-1812.03226
 21
-568.489774
 31
0.0
  0
LINE
  5
707134B
  8
0
 62
     7
 10
4257.681301
 20
1069.510227
 30
0.0
 11
-1812.03226
 21
1069.510227
 31
0.0
  0
LINE
  5
707134C
  8
0
 62
     7
 10
-1812.03226
 20
942.489774
 30
0.0
 11
4257.681301
 21
942.489774
 31
0.0
  0
LINE
  5
707134D
  8
0
 62
     7
 10
4257.681301
 20
2707.510226
 30
0.0
 11
-1812.03226
 21
2707.510226
 31
0.0
  0
LINE
  5
707134E
  8
0
 62
     7
 10
-1812.03226
 20
2580.489773
 30
0.0
 11
4257.681301
 21
2580.489773
 31
0.0
  0
LINE
  5
707134F
  8
0
 62
     7
 10
-1812.03226
 20
4218.489773
 30
0.0
 11
4257.681301
 21
4218.489773
 31
0.0
  0
LINE
  5
707135E
  8
0
 62
     7
 10
0.0
 20
0.0
 30
0.0
 11
100.0
 21
0.0
 31
0.0
  0
LINE
  5
707135F
  8
0
 62
     7
 10
0.0
 20
0.0
 30
0.0
 11
0.0
 21
100.0
 31
0.0
  0
CIRCLE
  5
707136A
  8
0
 62
     7
 10
1043.0
 20
3463.0
 30
0.0
 40
20.0
  0
CIRCLE
  5
707136B
  8
0
 62
     7
 10
1043.0
 20
1825.0
 30
0.0
 40
20.0
  0
CIRCLE
  5
707136C
  8
0
 62
     7
 10
1043.0
 20
187.0
 30
0.0
 40
20.0
  0
LINE
  5
7071374
  8
0
 62
    18
 10
1043.0
 20
167.0
 30
0.0
 11
1043.0
 21
207.0
 31
0.0
  0
LINE
  5
7071377
  8
0
 62
     7
 10
1023.0
 20
187.0
 30
0.0
 11
1063.0
 21
187.0
 31
0.0
  0
LINE
  5
7071378
  8
0
 62
    18
 10
1043.0
 20
1805.0
 30
0.0
 11
1043.0
 21
1845.0
 31
0.0
  0
LINE
  5
707137F
  8
0
 62
     7
 10
1023.0
 20
1825.0
 30
0.0
 11
1063.0
 21
1825.0
 31
0.0
  0
LINE
  5
7071382
  8
0
 62
    18
 10
1043.0
 20
3443.0
 30
0.0
 11
1043.0
 21
3483.0
 31
0.0
  0
LINE
  5
7071384
  8
0
 62
     7
 10
1023.0
 20
3463.0
 30
0.0
 11
1063.0
 21
3463.0
 31
0.0
  0
VIEWPORT
  5
70DCA
 67
     1
  8
0
 62
    18
 10
5.25
 20
4.0
 30
0.0
 40
11.638
 41
8.993
 68
     1
 69
     1
1001
ACAD
1000
MVIEW
1002
{
1070
    16
1010
0.0
1020
0.0
1030
0.0
1020
0.0
1030
0.0
1010
0.0
1020
0.0
1030
1.0
1020
0.0
1030
1.0
1040
0.0
1040
8.993
1040
5.25
1040
4.0
1040
50.0
1040
0.0
1040
0.0
1070
     0
1070
   100
1070
     1
1070
     3
1070
     0
1070
     0
1070
     0
1070
     0
1040
0.0
1040
0.0
1040
0.0
1040
0.5
1040
0.5
1040
0.5
1040
0.5
1070
     0
1002
{
1002
}
1002
}
  0
ENDSEC
  0
EOF
